<svg version="1.1" id="dragon" xmlns="http://www.w3.org/2000/svg" xmlns:xlink="http://www.w3.org/1999/xlink" x="0px" y="0px" viewBox="0 0 500 500" enable-background="new 0 0 500 500" xml:space="preserve"><g class="Tail"><path fill="rgb(0,0,0)" d="M222.769 316.584a48.12 48.12 0 00-10.055-1.074c-14.283 0-26.174 6.478-35.728 11.683-1.173.639-2.313 1.26-3.423 1.85-4.141 2.203-7.619 3.321-10.338 3.321-2.256 0-3.294-.788-3.645-1.137l.102-.83.005-.083c0-3.722-3.363-6.75-7.496-6.75-4.134 0-7.497 3.028-7.496 6.791.448 7.262 7.606 9.932 11.016 10.795-8.742 6.029-16.105 9.083-21.903 9.083-7.096 0-10.856-4.505-13.878-8.126-.272-.325-.537-.643-.797-.949-1.018-2.372-3.681-4.081-6.382-4.081-.659 0-1.301.1-1.909.3-3.31 1.083-5.024 4.388-3.831 7.342 1.369 3.825 7.782 7.429 11.856 9.388-6.345-.621-12.647-3.664-17.237-8.403-3.405-3.516-5.259-7.41-4.839-10.163.222-1.46.649-2.823 1.061-4.14.969-3.093 1.884-6.015-1.021-8.142l-.05-.033c-1.429-.897-2.87-1.351-4.281-1.351-2.809 0-5.245 1.864-6.515 4.985-2.743 6.739-.09 18.266 12.219 27.651 7.27 5.544 15.463 8.355 24.351 8.355h.003c10.987-.001 23.21-4.245 37.369-12.975 6.751-4.162 13.86-6.101 22.374-6.101 5.982 0 11.851.918 18.065 1.889 3.044.476 6.193.968 9.33 1.337 8.054.946 13.515.151 16.046-2.309.671-.653 1.016-1.315 1.192-1.851 2.152.813 4.122 1.224 5.868 1.224 4.226 0 7.07-2.468 7.609-6.602.888-6.804-4.885-18.159-17.642-20.894z"/><path fill="#612424" d="M218.1 333.372c-2.127-2.446-8.599-4.291-15.053-4.291-3.763 0-7.296.592-10.319 1.72 2.423.584 7.062 1.855 9.36 3.496 1.808 1.291 7.592 3.206 11.88 3.206h.001c2.746 0 4.339-.734 4.736-2.184.173-.632-.03-1.287-.605-1.947z" class="Mod_3"/><path fill="#EFF1F1" fill-rule="evenodd" d="M215.799 326.759c-11.092-5.093-24.715.301-35.507 5.756 3.088.058 8.773.402 11.886 2.056.247.132.539.291.87.472 5.094 2.785 20.522 11.213 31.627 1.911-1.014-3.724-3.447-7.702-8.876-10.195zm3.984 8.8c-.368 1.343-1.676 2.944-5.814 2.944h-.001c-4.676 0-10.662-2.06-12.571-3.422-2.928-2.092-10.383-3.639-10.458-3.655l-1.501-.308 1.374-.625c3.464-1.578 7.694-2.412 12.235-2.412 6.874 0 13.572 1.966 15.928 4.674.784.902 1.064 1.872.808 2.804z" class="Color_2"/><path fill="#4B4F53" fill-rule="evenodd" d="M212.549 342.236c-8.486.001-16.603-4.439-20.077-6.338a90.656 90.656 0 00-.859-.466c-3.776-2.007-12.096-1.94-13.267-1.92-1.547.805-3.026 1.598-4.417 2.343l-.491.264c-6.945 3.722-11.887 4.711-14.817 4.885l-.499.356c-9.785 6.98-17.738 10.373-24.314 10.373-7.928 0-12.137-5.043-15.21-8.725-.294-.352-.581-.696-.862-1.024l-.079-.092-.043-.11c-.738-1.827-2.829-3.205-4.863-3.205-.464 0-.915.07-1.34.209-2.446.801-3.713 3.245-2.824 5.447 1.78 4.973 14.244 9.97 14.369 10.02l3.16 1.254-3.447.181c-.467.024-.941.037-1.407.037h-.003c-7.599-.001-15.406-3.379-20.885-9.036-3.768-3.89-5.724-8.134-5.234-11.352.239-1.563.701-3.04 1.109-4.343 1.009-3.222 1.487-5.12-.446-6.554-1.135-.707-2.247-1.065-3.303-1.065-2.112 0-3.916 1.458-4.951 4.001-2.55 6.265.033 17.07 11.731 25.991 6.961 5.307 14.793 7.998 23.275 7.999h.003c10.64-.001 22.555-4.159 36.427-12.713 7.042-4.341 14.45-6.363 23.316-6.363 6.125 0 12.34.972 18.35 1.911 3.027.474 6.158.963 9.261 1.328 2.124.249 4.079.376 5.809.376 5.332-.001 7.705-1.184 8.756-2.176.482-.456.722-.901.844-1.249a20.07 20.07 0 00-.377-4.389c-3.872 3.048-8.18 4.145-12.395 4.145zm9.834-24.193a46.265 46.265 0 00-9.669-1.033c-13.819 0-25.489 6.358-34.866 11.466a387.514 387.514 0 01-3.438 1.859c-4.401 2.341-8.164 3.529-11.185 3.529-3.868 0-5.176-1.966-5.23-2.049l-.138-.214.164-1.327c-.024-2.877-2.63-5.21-5.83-5.21-3.215 0-5.831 2.355-5.831 5.25.495 8.002 10.356 9.575 11.301 9.707 2.554-.016 7.652-.711 15.209-4.762l.49-.263c11.541-6.188 28.981-15.539 42.943-9.127 8.012 3.678 9.894 10.354 10.111 15.134l.219.091c2.325.986 4.401 1.486 6.169 1.486 4.583 0 5.698-3.306 5.955-5.277.834-6.398-4.992-16.819-16.374-19.26z" class="Color_1"/><path fill="rgb(49, 52, 54)" d="M225.258 340.342c-6.728 6.456-29.846-.133-46.274.222-17.353.375-24.157 12.324-52.476 18.375-22.502 4.808-35.449-18.067-39.82-27.67-.424 6.297 3.053 14.823 12.592 22.098 6.961 5.307 14.793 7.998 23.275 7.999h.003c10.64-.001 22.555-4.159 36.427-12.713 7.042-4.341 14.45-6.363 23.316-6.363 6.125 0 12.34.972 18.35 1.911 3.027.474 6.158.963 9.261 1.328 2.124.249 4.079.376 5.809.376 5.332-.001 7.705-1.184 8.756-2.176.482-.456.722-.901.844-1.249a20.871 20.871 0 00-.063-2.138z" class="Shadow_1"/><path fill="rgb(49, 52, 54)" fill-rule="evenodd" d="M238.139 331.903c-.673 10.691-8.599 7.617-9.871 4.411-1.388-3.5-3.887-7.625-9.995-12.375-6.109-4.75-22.907-1.25-27.905 1.208-4.998 2.459-24.156 11.718-24.156 11.718-6.386 2.425-11.384 1.074-14.021-1.625-1.975-2.021-1.904-6.99-1.658-9.957-2.409.645-4.173 2.655-4.173 5.031.495 8.002 10.356 9.575 11.301 9.707 2.554-.016 7.652-.711 15.209-4.762l.49-.263c11.541-6.188 28.981-15.539 42.943-9.127 8.012 3.678 9.894 10.354 10.111 15.134l.219.091c2.325.986 4.401 1.486 6.169 1.486 4.583 0 5.698-3.306 5.955-5.277.21-1.609-.003-3.473-.618-5.4zm-127.267 7.099c-2.086.962-3.106 3.198-2.285 5.231 1.637 4.572 12.297 9.161 14.103 9.911-4.335-2.067-11.297-6.684-11.818-15.142z" class="Shadow_1"/><path fill="#c6cdcd" d="M224.675 336.954c-.617-2.266-1.765-4.625-3.789-6.687 1.054 2.272 1.536 5.221-.754 7.596-3.522 3.656-17.043 1.702-21.32-2.122-3.273-2.926-12.542-3.849-16.719-4.121-.608.297-1.209.596-1.801.895 3.088.058 8.773.402 11.886 2.056.247.132.539.291.87.472 5.094 2.785 20.522 11.213 31.627 1.911z" class="Shadow_2"/><path fill="#290f0f" d="M216.084 331.85c.395 2.236-1.605 3.527-4.489 3.39-4.179-.2-6.515-2.801-11.483-3.971-.85-.2-4.459-.464-6.923-.627-.153.054-.31.102-.461.159 2.423.584 7.062 1.855 9.36 3.496 1.808 1.291 7.592 3.206 11.88 3.206h.001c2.746 0 4.339-.734 4.736-2.184.173-.632-.03-1.287-.605-1.947-.471-.542-1.166-1.052-2.016-1.522z" class="Shadow_6"/></g><g class="Left_wing"><path fill="rgb(0,0,0)" d="M26.87 131.373l-.87-.591.879-.579c.119-.078 11.966-8.064 25.882-33.569-.929-3.758-11.758-47.158-18.36-58.392l-.772-1.314 1.556.261c.15.025 15.33 2.658 39.342 14.601 22.051 10.966 56.311 32.26 94.464 71.471 1.718-.802 8.199-4.448 14.65-16.146l1.201-2.177.211 2.451c.012.149 1.106 14.873-13.079 23.137-.218.976-.826 3.365-1.727 4.347-.254 1.184-1.536 6.742-3.816 9.631-.186 1.04-1.145 6.158-2.605 9.379.124 1 .53 5.326-.99 10.034.289 1.071 1.47 5.946.619 11.319.548 1.197 3.173 7.361 3.102 15.395.601 1.008 3.528 6.067 4.815 11.07.595.763 3.542 4.749 4.399 9.813.71 1.02 4.99 7.272 5.846 10.976.91.819 4.946 4.544 6.741 7.695 1.042.544 5.239 3.05 7.448 9.116 1.127.697 5.987 3.827 8.04 7.192 1.204.592 6.964 3.617 9.121 8.226 1.45.609 7.832 3.475 9.852 7.483 1.638.232 7.294 1.355 10.495 6.057 1.913.797 14.606 6.406 13.485 14.479-.267 1.921-1.501 2.979-3.474 2.979h-.001c-1.503 0-3.431-.587-5.895-1.793-.722-.252-7.833-2.829-10.844-7.762-1.239-.185-4.998-1.023-8.452-4.609-2.602-.818-30.709-9.812-46.542-21.443-3.695 3.19-28.09 24.327-32.177 29.736l-.766 1.014-14.211-30.708-39.882 18.999v-47.792l-46.568-13.671 22.693-43.005c-2.153-2.815-17.133-21.991-33.81-33.31z"/><path fill="rgb(255,255,255)" d="M183.468 110.367c-.448 4.486-2.597 13.236-12.17 18.872-.165-1.306-.668-2.871-1.812-4.615 1.641-.713 7.648-3.888 13.982-14.257z"/><path fill="#d5c6b5" fill-rule="evenodd" d="M156.505 163.677c-1.712 3.347-.55 9.184-.341 10.145-1.588 4.48 2.183 12.931 2.695 14.04-.498 4.639 4.34 13.024 4.946 14.052-.019.789-.003 1.539.065 2.228.475 4.81 4.961 10.257 5.728 11.157.051.865.138 1.66.279 2.348.877 4.291 4.652 7.585 5.448 8.239.056.368.114.72.176 1.044.891 4.701 5.817 8.397 6.731 9.048.166.533.348 1.032.552 1.479 1.955 4.29 6.673 7.555 7.482 8.093.03.064.055.132.086.195 2.535 5.217 7.275 7.615 8.312 8.089.078.209.156.425.234.629 2.61 6.764 11.208 11.155 12.278 11.68a26.869 26.869 0 002.77 2.509c-9.255-3.184-29.634-10.808-41.927-20.036l-.497-.373-.469.404-.706.608c-3.639 1.883-16.718 8.835-25.036 15.658.067-8.477.911-65.757 11.222-102.99a52.52 52.52 0 00-.028 1.754zM30.251 129.401c4.272-3.689 13.474-13.044 23.97-32.344l.127-.234-.062-.257c-.071-.29-.385-1.565-.89-3.562.131-5.124.431-29.048-4.822-43.069 2.786.514 12.519 2.743 28.334 10.904 17.233 8.892 45.379 26.826 81.95 61.855-4.824-.735-20.596-2.906-41.509-3.396-22.481-.528-55.536.838-87.098 10.103zm55.804 135.145v-44.242l-2.104-.618-32.282-14.711c40.159-36.998 97.036-65.835 108.057-71.253-7.747 10.104-49.182 65.755-73.671 130.824zm52.274 12.083l-13.155-28.427-1.754.836-26.63 6.81c3.746-8.402 33.11-73.476 60.207-111.135-4.032 12.147-17.909 59.116-18.668 131.916zM62.166 164.202a41.45 41.45 0 00-.421-.552c-1.337-3.702-7.417-19.093-19.589-30.026 7.176-2.058 60.073-16.306 117.785-7.324-10.325 5.759-84.371 47.486-118.586 78.187l21.073-39.935-.262-.35z" class="Mod_2"/><path fill="#8f8f8f" fill-rule="evenodd" d="M205.8 253.231c-.604-1.816-1.174-3.526-1.762-5 1.409.785 3.937 2.365 5.824 4.5l-.015.011c.596.699 1.23 1.68 1.864 2.814l.109.252.039.016c1.9 3.462 3.79 8.21 4.723 10.835a31.315 31.315 0 001.391 3.336c-.223-.071-.493-.159-.8-.259-2.016-1.268-6.665-4.578-8.719-9.25-.996-2.264-1.839-4.801-2.654-7.255zm-25.179-26.699c.302 2.625.632 5.486 1.19 7.887-1.681-1.396-4.69-4.302-5.326-7.658-.566-2.982-.902-8.084-1.172-12.183l-.082-1.224c1.411 2.124 4.254 6.634 4.908 9.394.172 1.093.325 2.418.482 3.784zm7.468 5.171c1.174.721 3.81 2.679 5.635 6.503.393 1.2.871 2.816 1.364 4.484.884 2.989 1.948 6.578 3.089 9.805-1.704-.963-5.013-3.231-6.918-7.151-1.447-2.975-2.027-6.711-2.538-10.007-.205-1.32-.399-2.549-.632-3.634zm-6.733-7.46c1.364 1.289 3.891 3.81 5.341 6.064.434 1.305.719 3.135 1.035 5.169.419 2.703.892 5.69 1.843 8.372-1.695-1.314-4.529-3.82-5.874-6.771-1.152-2.529-1.67-7.031-2.086-10.648-.087-.764-.172-1.498-.259-2.186zm14.236 16.644c1.605 1.049 5.178 3.564 6.843 6.143.824 1.719 1.604 4.061 2.411 6.489.822 2.474 1.672 5.031 2.686 7.336a16.78 16.78 0 001.869 3.188c-2.929-1.789-7.795-5.322-9.564-9.909-1.4-3.629-2.723-8.105-3.786-11.702l-.459-1.545zm37.891 29.023c3.124 1.43 12.702 6.355 11.829 12.641-.169 1.217-.764 1.736-1.988 1.737-1.121 0-2.664-.453-4.585-1.341-.632-.691-1.64-2.106-2.066-4.434-.464-2.528-1.638-5.782-3.19-8.603zm-9.862-4.227a88.391 88.391 0 00-.787-2.027c1.423.239 5.098 1.089 7.834 3.742 2.406 3.064 4.406 7.931 5.02 11.279.275 1.505.772 2.663 1.284 3.525-2.15-.893-7.152-3.294-9.255-7.041l-.052-.091c-.74-1.558-1.882-4.016-2.832-6.298a97.617 97.617 0 01-1.212-3.089zm-10.306-9.228c1.989.932 5.91 3.008 7.704 5.616.579 1.088 1.08 2.4 1.661 3.935.356.939.759 2.003 1.223 3.117a143.47 143.47 0 002.475 5.544c-1.294-.27-4.103-1.132-6.768-3.717-.502-.851-1.284-2.354-2.081-4.597-.906-2.548-2.51-6.585-4.214-9.898zm-55.707-92.724c1.432-2.248 3.347-5.638 4.832-8.312.066 1.549.017 4.101-.689 6.867-.507 1.126-1.247 2.552-2.018 4.036-.962 1.849-2.02 3.887-2.86 5.779-.331-2.231-.654-6.19.735-8.37zm8.681-26.713c.787-.534 1.584-1.075 2.314-1.68-.413 1.714-1.417 5.363-2.924 7.677-1.278 1.581-3.4 4.043-4.97 5.865l-1.009 1.171c.394-2.726 1.367-8.119 3.121-10.208.92-1.097 2.158-1.937 3.468-2.825zm-3.451-11.22l-1.366-.221c-62.565-10.124-119.874 7.205-120.446 7.381l-.818.252.635.553c10.249 8.917 16.25 21.127 18.791 27.216-5.125-6.342-17.393-20.644-30.936-30.109 31.978-9.724 65.765-11.153 88.607-10.62 25.081.587 42.736 3.595 42.911 3.626l1.56.269-1.115-1.073c-37.236-35.848-65.889-54.111-83.368-63.118-18.99-9.786-29.009-11.052-29.427-11.101l-.824-.097.296.74c4.652 11.614 5.149 30.968 5.111 39.802-3.374-13.074-10.667-40.02-15.992-50.388 4.394.974 17.979 4.491 37.457 14.187 21.131 10.518 53.544 30.592 89.852 66.958l-.026.03c.095.073.183.145.274.217a446.654 446.654 0 014.241 4.305l.102.105c1.839 2.6 2.122 4.762 1.979 6.221-.135.513-.29 1.024-.452 1.48-.905 1.611-2.502 2.694-4.175 3.829-1.308.887-2.661 1.805-3.669 3.005-2.433 2.898-3.406 11.068-3.531 12.213-.872 1.151-1.366 3.472-1.644 5.798-12.422 39.785-12.56 108.026-12.56 108.712v1.067l.834-.712c6.383-5.45 16.188-11.111 21.956-14.25-7.32 6.372-22.606 19.837-27.774 25.595.741-85.244 19.513-135.26 19.704-135.758l1.278-3.339-2.156 2.9c-29.441 39.603-62.349 114.156-62.678 114.904l-.394.896 23.874-6.105-32.639 15.549c26.775-72.297 74.99-133.437 75.477-134.05l1.284-1.616-1.905.902c-.656.31-66.168 31.555-110.709 72.815l-.515.477 27.493 12.528-37.226-10.928c35.545-32.895 120.569-79.911 121.43-80.386l1.199-.661zm7.951 77.624c.904 1.333 2.447 3.929 3.227 7.05.096 1.093.193 2.561.298 4.166.206 3.122.451 6.82.807 9.751-1.34-1.29-3.639-3.874-4.263-6.924-.463-2.267-.325-5.839-.191-9.293.065-1.673.127-3.3.122-4.75zm-8.359-26.784c.855 2.134 2.679 7.468 2.626 13.971-.124 1.215-.308 2.552-.496 3.924-.256 1.867-.512 3.764-.653 5.539-1.503-2.777-4.495-8.829-4.043-12.231.284-2.144 1.092-5.335 1.872-8.421.26-1.03.492-1.954.694-2.782zm-5.281-2.627c.866-2.239 2.255-4.91 3.48-7.266.321-.619.631-1.215.921-1.782.325 1.443.878 4.524.648 8.012-.225 1.438-.857 3.939-1.434 6.221-.604 2.388-1.221 4.833-1.609 6.836-1.146-2.824-3.25-8.802-2.006-12.021zm8.403 20.645c.105-.77.209-1.529.303-2.264.998 1.803 2.828 5.361 3.859 8.916.148 1.813.053 4.267-.046 6.829-.073 1.877-.146 3.787-.125 5.523-1.5-1.951-4.326-6.045-4.678-9.607-.252-2.553.225-6.032.687-9.397zm-6.17-42.724c.518-.612 1.264-1.478 2.099-2.447a553.2 553.2 0 003.175-3.706c-.424 2.038-1.235 5.473-2.285 7.706l-.05.107c-1.305 2.363-3.214 5.796-4.791 8.392.041-1.324.137-2.963.323-4.551l.056-.184-.033-.009c.277-2.272.743-4.405 1.506-5.308z" class="Mod_1"/><path fill="#696969" fill-rule="evenodd" d="M157.608 163.731c1.432-2.248 3.347-5.638 4.832-8.312.012.274.017.589.019.921-1.136 3.288-4.294 7.863-4.613 9.586-.254 1.373-.182 3.182-.098 4.308-.306.63-.604 1.257-.875 1.867-.331-2.231-.654-6.19.735-8.37zm75.875 106.179c.565.259 1.343.634 2.231 1.109 1.122 1.874 1.837 4.068 2.258 5.61.667 2.441 3.833 5.737 5.389 4.705.709-.47.944-1.779.991-3.064.769 1.328 1.17 2.764.96 4.281-.169 1.217-.764 1.736-1.988 1.737-1.121 0-2.664-.453-4.585-1.341-.632-.691-1.64-2.106-2.066-4.434-.464-2.528-1.638-5.782-3.19-8.603zm-76.334-95.899c.866-2.239 2.255-4.91 3.48-7.266.321-.619.631-1.215.921-1.782.108.48.241 1.145.363 1.943-1.167 2.96-3.812 5.528-4.045 8.726-.22 3.015 1.303 5.817 2.045 6.986a79.127 79.127 0 00-.758 3.414c-1.146-2.824-3.25-8.802-2.006-12.021zm56.166 82.444c.698.327 1.636.798 2.634 1.38 1.286 2.208 1.85 5.493 2.356 7.421.813 3.096 2.688 6.252 4.602 6.312.846.088 1.356-.48 1.632-.953.637 1.463 1.3 2.902 1.839 4.052-1.294-.27-4.103-1.132-6.768-3.717-.502-.851-1.284-2.354-2.081-4.597-.906-2.548-2.51-6.585-4.214-9.898zm10.306 9.228a88.391 88.391 0 00-.787-2.027c.594.1 1.581.309 2.727.707 1.064 1.974 1.309 4.244 1.682 5.954.722 3.315 4.041 7.385 5.875 7.623 1.163.151 1.763-.738 2.047-1.408.223.757.401 1.481.523 2.145.275 1.505.772 2.663 1.284 3.525-2.15-.893-7.152-3.294-9.255-7.041l-.052-.091c-.74-1.558-1.882-4.016-2.832-6.298a97.617 97.617 0 01-1.212-3.089zM59.634 160.979c-5.125-6.342-17.393-20.644-30.936-30.109 21.522-6.545 43.858-9.329 63.131-10.289 11.157.345 22.312 1.048 32.276 1.848-46.308-.591-82.624 10.389-83.079 10.529l-.818.252.635.553c10.249 8.917 16.25 21.127 18.791 27.216zm103.359-19.171c-1.078 2.01-1.548 4.935-1.729 6.427l-.555.645-1.009 1.171c.394-2.726 1.367-8.119 3.121-10.208.92-1.097 2.158-1.937 3.468-2.825.787-.534 1.584-1.075 2.314-1.68-.112.466-.27 1.077-.468 1.763-1.612 1.483-4.05 2.669-5.142 4.707zm.914 58.264c-1.503-2.777-4.495-8.829-4.043-12.231.284-2.144 1.092-5.335 1.872-8.421.26-1.03.492-1.954.694-2.782.215.537.492 1.278.785 2.189-.111 5.042-2.397 7.971-2.274 9.966.108 1.759 2.424 6.055 3.355 7.72a73.678 73.678 0 00-.389 3.559zm-4.525-48.14c.518-.612 1.264-1.478 2.099-2.447a553.2 553.2 0 003.175-3.706c-.09.434-.199.934-.323 1.47-1.674 2.261-4.617 5.733-5.09 6.967-.453 1.181-.217 3.667-.053 4.949-.567.985-1.132 1.95-1.66 2.819.041-1.324.137-2.963.323-4.551l.056-.184-.033-.009c.277-2.272.743-4.405 1.506-5.308zM47.866 48.853l-.824-.097.296.74c4.652 11.614 5.149 30.968 5.111 39.802-3.374-13.074-10.667-40.02-15.992-50.388 2.892.641 9.768 2.385 19.685 6.267 42.675 19.359 74.878 48.834 91.754 65.979-31.048-28.089-55.178-43.253-70.603-51.202-18.99-9.786-29.009-11.052-29.427-11.101zm122.923 154.569a24.3 24.3 0 011.287 2.132c.194 3.505-.726 6.894-.583 9.203.144 2.341 2.289 4.959 3.267 6.038.107 1.26.226 2.482.361 3.594-1.34-1.29-3.639-3.874-4.263-6.924-.463-2.267-.325-5.839-.191-9.293.065-1.673.127-3.3.122-4.75zm-5.237-8.766c.105-.77.209-1.529.303-2.264.334.604.762 1.408 1.222 2.339-.14 3.508-1.352 6.134-1.147 9.069.184 2.634 2.471 5.263 3.662 6.465a78.778 78.778 0 00-.049 3.395c-1.5-1.951-4.326-6.045-4.678-9.607-.252-2.553.225-6.032.687-9.397zm-6.282-47.989a56.005 56.005 0 00-.716 4.403l-.069.424c-.856 1.162-1.344 3.46-1.62 5.764-12.422 39.785-12.56 108.026-12.56 108.712v1.067l.834-.712c6.383-5.45 16.188-11.111 21.956-14.25-7.32 6.372-22.606 19.837-27.774 25.595.232-26.655 2.226-49.866 4.865-69.195 5.839-31.283 13.602-60.319 15.084-61.808zm1.033-8.094l-2.156 2.9c-29.441 39.603-62.349 114.156-62.678 114.904l-.394.896 23.874-6.105-32.639 15.549a392.996 392.996 0 015.469-13.927c17.998-34.664 57.045-106.663 68.524-114.217zm-4.245-4.098c-16.316 8.223-68.306 35.745-105.601 70.293l-.515.477 27.493 12.528-37.226-10.928c13.872-12.838 35.279-27.826 56.279-41.359 27.18-16.411 49.828-26.568 59.57-31.011zm25.298 89.768a56.27 56.27 0 011.832 1.814c.57 1.602.738 3.436.492 4.838-.437 2.501.563 5.3 1.688 6.67.831 1.012 2.24 1.21 2.92 1.246.319 1.704.716 3.425 1.287 5.037-1.695-1.314-4.529-3.82-5.874-6.771-1.152-2.529-1.67-7.031-2.086-10.648-.087-.764-.172-1.498-.259-2.186zm-3.863 1.769c.811 2.106 2.704 3.64 3.589 4.269.199 1.44.431 2.855.729 4.138-1.681-1.396-4.69-4.302-5.326-7.658-.566-2.982-.902-8.084-1.172-12.183l-.082-1.224c.321.483.717 1.093 1.143 1.773.934 3.717-.279 7.257 1.119 10.885zm18.099 14.875c.382.249.877.584 1.428.98 1.176 1.896 2.069 4.728 3.035 8.025 1.011 3.449 2.563 7.801 4.07 8.656.987.559 1.773-.167 2.201-.736a51.395 51.395 0 001.206 3.043 16.78 16.78 0 001.869 3.188c-2.929-1.789-7.795-5.322-9.564-9.909-1.4-3.629-2.723-8.105-3.786-11.702l-.459-1.545zm-7.503-9.184c.3.184.696.45 1.148.806.918 2.133 1.518 5.059 1.381 6.366-.188 1.786 2.125 7.861 3.695 8.277.97.258 1.572-.279 1.892-.728a145.898 145.898 0 001.972 6.071c-1.704-.963-5.013-3.231-6.918-7.151-1.447-2.975-2.027-6.711-2.538-10.007-.205-1.32-.399-2.549-.632-3.634zm17.711 21.528c-.604-1.816-1.174-3.526-1.762-5 .57.317 1.325.77 2.143 1.331 1.932 2.874 2.708 6.893 3.113 8.488.949 3.738 3.324 7.623 4.949 8.089 1.058.303 1.611-.302 1.869-.761.174.464.333.897.47 1.281a31.315 31.315 0 001.391 3.336c-.223-.071-.493-.159-.8-.259-2.016-1.268-6.665-4.578-8.719-9.25-.996-2.264-1.839-4.801-2.654-7.255z" class="Shadow_4"/><path fill="rgb(198,196,195)" d="M171.298 129.239a9.683 9.683 0 00-.68-2.489c9.079-4.388 12.74-15.475 12.85-16.383-.448 4.486-2.597 13.236-12.17 18.872z"/><path fill="rgb(190, 169, 145)" fill-rule="evenodd" d="M81.1 125.951c21.467-2.782 49.531-4.213 78.841.349a960.921 960.921 0 00-7.234 4.083c-7.633-.919-41.233-4.729-71.607-4.432zm-38.394.205c-4.159.956-8.32 2.031-12.455 3.245 4.272-3.689 13.474-13.044 23.97-32.344l.127-.234-.062-.257c-.071-.29-.385-1.565-.89-3.562.131-5.124.431-29.048-4.822-43.069.921.17 2.608.53 5.018 1.228 13.612 15.611 33.711 42.634 32.963 44.771-.752 2.15-29.593 21.004-43.849 30.222zm109.986 33.266c-7.35 12.467-32.085 52.902-43.75 70.383 11.871-24.552 30.44-60.612 48.055-85.092-.971 2.924-2.513 7.873-4.305 14.709zM88.533 67.324c17.2 10.264 41.062 27.34 70.325 55.37-1.976-.301-5.79-.843-11.039-1.412-5.793-5.845-34.265-34.278-59.286-53.958zm71.193 66.398c-1.575 2.053-4.541 5.989-8.474 11.503-7.624 3.203-39.036 16.679-64.271 31.616 32.456-22.847 64.729-39.178 72.745-43.119zm-51.171 59.398c1.121 1.424-4.349 22.351-9.377 40.485-4.678 9.959-9.127 20.324-13.123 30.941v-44.242l-2.104-.618-32.282-14.711c.563-.518 1.13-1.034 1.699-1.55 17.189-4.009 53.661-12.244 55.187-10.305zm-46.389-28.918a41.45 41.45 0 00-.421-.552c-1.332-3.688-7.371-18.971-19.449-29.897 15.91 5.547 51.926 18.323 51.926 20.302 0 1.494-17.158 19.006-31.305 33.191-8.064 5.92-15.45 11.757-21.562 17.241l21.073-39.935-.262-.35zm67.389 60.013c1.417 1.103 5.882 20.1 9.287 33.287a585.295 585.295 0 00-.513 19.127l-13.155-28.427-1.754.836-26.63 6.81.767-1.711c10.329-10.637 30.515-31.077 31.998-29.922zm39.333 8.859c1.631.491 7.187 4.318 13.423 8.698-1.025-1.545-2.065-3.144-2.506-3.925-4.25-4.153-6.25-7.13-6.5-9.334-3.75-3.394-6.25-7.682-6.25-10.54-3-3.811-6.554-7.484-5.75-13.34-2.75-4.764-5.25-8.098-4.75-11.195a14.77 14.77 0 00-1.842-2.576c-2.694 12.268-6.065 28.545-8.247 42.398 1.312-21.617 4.109-49.823 10.067-71.337a52.52 52.52 0 00-.028 1.754c-1.712 3.347-.55 9.184-.341 10.145-1.588 4.48 2.183 12.931 2.695 14.04-.498 4.639 4.34 13.024 4.946 14.052-.019.789-.003 1.539.065 2.228.475 4.81 4.961 10.257 5.728 11.157.051.865.138 1.66.279 2.348.877 4.291 4.652 7.585 5.448 8.239.056.368.114.72.176 1.044.891 4.701 5.817 8.397 6.731 9.048.166.533.348 1.032.552 1.479 1.955 4.29 6.673 7.555 7.482 8.093.03.064.055.132.086.195 2.535 5.217 7.275 7.615 8.312 8.089.078.209.156.425.234.629 2.61 6.764 11.208 11.155 12.278 11.68a26.869 26.869 0 002.77 2.509c-9.255-3.184-29.634-10.808-41.927-20.036l-.497-.373-.469.404-.706.608c-3.639 1.883-16.718 8.835-25.036 15.658l.005-.581c6.367-10.109 20.405-32.213 23.572-31.258z" class="Shadow_5"/></g><g class="Right_wing"><path fill="rgb(0,0,0)" d="M472.804 131.945l.87-.592-.88-.579c-.118-.078-11.965-8.064-25.882-33.568.93-3.758 11.758-47.159 18.361-58.392l.772-1.314-1.556.261c-.151.025-15.33 2.658-39.342 14.6-22.051 10.967-56.312 32.261-94.464 71.472-1.718-.802-8.199-4.448-14.651-16.146l-1.2-2.177-.211 2.451c-.013.149-1.106 14.873 13.079 23.137.218.975.826 3.365 1.727 4.347.254 1.184 1.536 6.742 3.816 9.631.185 1.039 1.145 6.158 2.605 9.379-.124.999-.53 5.326.99 10.034-.289 1.07-1.47 5.946-.62 11.319-.547 1.197-3.172 7.361-3.102 15.395-.6 1.008-3.527 6.066-4.815 11.07-.594.763-3.541 4.748-4.398 9.812-.71 1.021-4.99 7.273-5.846 10.977-.91.819-4.946 4.544-6.742 7.695-1.042.544-5.238 3.05-7.447 9.116-1.127.697-5.987 3.826-8.04 7.192-1.204.592-6.964 3.617-9.121 8.226-1.451.609-7.832 3.475-9.853 7.483-1.637.232-7.293 1.355-10.494 6.057-1.913.796-14.606 6.406-13.485 14.479.267 1.92 1.501 2.978 3.474 2.979h.001c1.503 0 3.431-.587 5.895-1.794.722-.251 7.832-2.828 10.844-7.761 1.238-.186 4.998-1.023 8.452-4.609 2.602-.818 30.709-9.812 46.542-21.443 3.694 3.19 28.09 24.327 32.177 29.736l.766 1.014 14.211-30.708 39.882 18.999v-47.792l46.568-13.671-22.694-43.006c2.154-2.814 17.134-21.99 33.811-33.309z"/><path fill="rgb(255,255,255)" d="M316.206 110.939c.448 4.486 2.597 13.236 12.169 18.872.166-1.307.669-2.871 1.813-4.615-1.641-.713-7.649-3.888-13.982-14.257z"/><path fill="#d5c6b5" fill-rule="evenodd" d="M343.169 164.249c1.712 3.347.55 9.184.341 10.145 1.588 4.48-2.184 12.931-2.695 14.04.498 4.638-4.34 13.024-4.946 14.052.019.789.003 1.539-.065 2.228-.475 4.81-4.961 10.257-5.729 11.157-.051.865-.137 1.66-.278 2.348-.877 4.291-4.652 7.585-5.448 8.239-.056.368-.114.72-.176 1.044-.891 4.7-5.817 8.397-6.731 9.048a13.02 13.02 0 01-.552 1.479c-1.955 4.29-6.673 7.555-7.482 8.093-.03.064-.055.131-.086.195-2.536 5.217-7.275 7.615-8.312 8.089-.079.209-.156.424-.235.628-2.609 6.765-11.207 11.156-12.277 11.681a27.195 27.195 0 01-2.77 2.509c9.255-3.184 29.634-10.808 41.927-20.036l.497-.374.469.404.706.609c3.639 1.883 16.718 8.834 25.036 15.658-.068-8.478-.911-65.757-11.222-102.99.027.866.029 1.502.028 1.754zm126.254-34.276c-4.272-3.69-13.474-13.044-23.97-32.344l-.128-.234.063-.257c.071-.29.385-1.565.89-3.562-.131-5.124-.432-29.048 4.822-43.069-2.786.514-12.519 2.743-28.334 10.904-17.234 8.892-45.379 26.826-81.95 61.854 4.824-.735 20.595-2.905 41.509-3.395 22.481-.528 55.536.838 87.098 10.103zm-55.804 135.145v-44.243l2.104-.617 32.282-14.711c-40.159-36.998-97.036-65.835-108.057-71.254 7.747 10.105 49.182 65.755 73.671 130.825zm-52.275 12.083l13.156-28.427 1.754.836 26.63 6.81c-3.747-8.402-33.11-73.476-60.207-111.136 4.032 12.148 17.909 59.117 18.667 131.917zm76.164-112.428c.014-.019.159-.211.42-.552 1.338-3.701 7.417-19.092 19.59-30.026-7.176-2.057-60.074-16.305-117.785-7.323 10.325 5.759 84.371 47.486 118.586 78.187l-21.073-39.935.262-.351z" class="Mod_2"/><path fill="#8f8f8f" fill-rule="evenodd" d="M293.874 253.803c.604-1.816 1.174-3.527 1.761-5-1.408.785-3.936 2.365-5.823 4.5l.015.011c-.596.699-1.23 1.68-1.865 2.814l-.109.252-.039.016c-1.9 3.462-3.789 8.21-4.722 10.835a31.173 31.173 0 01-1.392 3.336c.224-.071.493-.159.801-.259 2.016-1.268 6.664-4.578 8.719-9.25.996-2.264 1.839-4.801 2.654-7.255zm25.178-26.699c-.301 2.625-.631 5.486-1.189 7.887 1.681-1.396 4.69-4.302 5.326-7.658.566-2.982.902-8.084 1.172-12.183l.081-1.224c-1.41 2.124-4.253 6.634-4.907 9.394-.173 1.093-.325 2.418-.483 3.784zm-7.467 5.171c-1.174.72-3.811 2.679-5.635 6.503-.393 1.2-.871 2.815-1.364 4.484-.884 2.989-1.948 6.578-3.089 9.805 1.704-.964 5.013-3.232 6.918-7.151 1.447-2.976 2.026-6.712 2.538-10.008.205-1.319.399-2.548.632-3.633zm6.733-7.46c-1.364 1.289-3.892 3.81-5.341 6.064-.434 1.305-.719 3.135-1.035 5.169-.419 2.703-.893 5.69-1.843 8.372 1.695-1.315 4.529-3.82 5.873-6.771 1.153-2.529 1.671-7.031 2.087-10.649.087-.763.172-1.497.259-2.185zm-14.236 16.644c-1.605 1.049-5.178 3.564-6.843 6.142-.824 1.72-1.605 4.062-2.411 6.489-.822 2.474-1.673 5.032-2.686 7.336a16.756 16.756 0 01-1.869 3.189c2.929-1.79 7.795-5.323 9.564-9.909 1.4-3.629 2.723-8.106 3.786-11.703l.459-1.544zm-37.891 29.023c-3.125 1.43-12.702 6.355-11.829 12.64.169 1.218.763 1.737 1.987 1.737h.001c1.121 0 2.664-.453 4.585-1.34.632-.692 1.64-2.106 2.066-4.434.463-2.528 1.637-5.783 3.19-8.603zm9.862-4.228c.274-.723.53-1.395.787-2.026-1.423.239-5.098 1.089-7.834 3.741-2.407 3.065-4.406 7.932-5.02 11.28-.276 1.504-.773 2.662-1.284 3.525 2.15-.893 7.152-3.294 9.255-7.041l.052-.092c.74-1.558 1.882-4.015 2.832-6.297a96.691 96.691 0 001.212-3.09zm10.305-9.227c-1.988.931-5.909 3.008-7.703 5.615-.579 1.089-1.08 2.401-1.662 3.936-.355.938-.758 2.002-1.222 3.117a141.12 141.12 0 01-2.476 5.543c1.295-.27 4.104-1.131 6.769-3.716.502-.851 1.284-2.354 2.081-4.597.905-2.549 2.509-6.585 4.213-9.898zm55.708-92.724c-1.433-2.248-3.348-5.638-4.832-8.312-.066 1.549-.017 4.1.689 6.867.507 1.126 1.247 2.552 2.018 4.035.961 1.849 2.02 3.888 2.86 5.78.33-2.231.654-6.19-.735-8.37zm-8.681-26.713c-.787-.534-1.584-1.075-2.314-1.68.413 1.714 1.416 5.362 2.923 7.677 1.279 1.581 3.401 4.043 4.971 5.865l1.008 1.171c-.393-2.726-1.366-8.119-3.12-10.209-.921-1.096-2.158-1.936-3.468-2.824zm3.451-11.22l1.366-.221c62.564-10.125 119.874 7.205 120.445 7.381l.819.252-.635.553c-10.25 8.916-16.25 21.126-18.791 27.216 5.124-6.342 17.393-20.645 30.936-30.109-31.978-9.724-65.765-11.154-88.607-10.62-25.081.586-42.736 3.595-42.911 3.625l-1.56.27 1.115-1.074c37.236-35.848 65.889-54.11 83.368-63.117 18.989-9.786 29.009-11.052 29.426-11.101l.825-.097-.296.74c-4.653 11.614-5.149 30.968-5.111 39.802 3.374-13.074 10.667-40.02 15.992-50.389-4.394.975-17.979 4.492-37.457 14.188-21.131 10.518-53.544 30.591-89.852 66.958l.025.03c-.094.073-.182.145-.274.217a470.88 470.88 0 00-4.24 4.304l-.102.106c-1.84 2.6-2.122 4.762-1.979 6.221.135.513.29 1.024.452 1.48.905 1.611 2.502 2.694 4.175 3.829 1.308.887 2.661 1.804 3.669 3.005 2.433 2.898 3.405 11.067 3.531 12.213.872 1.151 1.366 3.472 1.644 5.797 12.422 39.785 12.56 108.027 12.56 108.713l-.001 1.067-.833-.712c-6.383-5.45-16.188-11.111-21.956-14.25 7.319 6.372 22.606 19.837 27.774 25.595-.741-85.245-19.513-135.26-19.704-135.759l-1.278-3.338 2.156 2.9c29.441 39.602 62.349 114.156 62.678 114.904l.394.896-23.874-6.105 32.639 15.549c-26.775-72.297-74.99-133.437-75.477-134.051l-1.284-1.616 1.905.902c.656.311 66.168 31.556 110.709 72.816l.514.477-27.492 12.528 37.226-10.929c-35.545-32.894-120.569-79.91-121.43-80.385l-1.199-.661zm-7.951 77.623c-.904 1.333-2.447 3.93-3.228 7.05-.095 1.094-.192 2.562-.298 4.166-.206 3.123-.45 6.821-.806 9.752 1.34-1.29 3.639-3.874 4.262-6.925.464-2.267.326-5.838.192-9.292-.065-1.674-.128-3.3-.122-4.751zm8.359-26.783c-.855 2.134-2.68 7.467-2.626 13.971.124 1.215.307 2.552.496 3.923.256 1.868.512 3.765.653 5.54 1.503-2.777 4.495-8.829 4.043-12.232-.285-2.143-1.092-5.334-1.872-8.421-.261-1.03-.493-1.953-.694-2.781zm5.28-2.628c-.865-2.238-2.254-4.909-3.479-7.266-.322-.618-.632-1.214-.921-1.781-.325 1.442-.878 4.523-.648 8.012.225 1.437.857 3.938 1.434 6.221.604 2.387 1.221 4.833 1.608 6.836 1.147-2.824 3.251-8.802 2.006-12.022zm-8.402 20.646c-.106-.77-.209-1.529-.303-2.265-.998 1.804-2.828 5.361-3.859 8.917-.148 1.813-.053 4.266.046 6.828.073 1.878.146 3.788.125 5.524 1.499-1.951 4.325-6.045 4.677-9.607.253-2.554-.225-6.033-.686-9.397zm6.17-42.724a418.563 418.563 0 00-2.099-2.447 579.558 579.558 0 01-3.175-3.706c.423 2.038 1.234 5.473 2.285 7.706l.05.107c1.305 2.363 3.214 5.796 4.791 8.392a54.974 54.974 0 00-.323-4.551l-.056-.184.033-.01c-.277-2.271-.744-4.404-1.506-5.307z" class="Mod_1"/><path fill="#696969" fill-rule="evenodd" d="M342.066 164.303c-1.433-2.248-3.348-5.638-4.832-8.312-.012.274-.017.588-.019.92 1.136 3.289 4.294 7.864 4.613 9.587.253 1.373.182 3.182.098 4.308.306.63.604 1.256.875 1.867.33-2.231.654-6.19-.735-8.37zm-75.875 106.179c-.565.259-1.344.634-2.231 1.108-1.122 1.875-1.837 4.069-2.258 5.611-.667 2.441-3.833 5.737-5.389 4.705-.709-.47-.945-1.779-.991-3.064-.769 1.328-1.171 2.764-.96 4.28.169 1.218.763 1.737 1.987 1.737h.001c1.121 0 2.664-.453 4.585-1.34.632-.692 1.64-2.106 2.066-4.434.463-2.528 1.637-5.783 3.19-8.603zm76.333-95.9c-.865-2.238-2.254-4.909-3.479-7.266-.322-.618-.632-1.214-.921-1.781-.108.48-.241 1.145-.363 1.943 1.167 2.96 3.812 5.527 4.045 8.726.22 3.014-1.303 5.816-2.045 6.986.292 1.21.556 2.372.757 3.414 1.147-2.824 3.251-8.802 2.006-12.022zm-56.166 82.445a33.55 33.55 0 00-2.633 1.38c-1.286 2.208-1.85 5.492-2.356 7.42-.813 3.097-2.688 6.253-4.602 6.313-.846.088-1.356-.481-1.632-.954a158.57 158.57 0 01-1.84 4.052c1.295-.27 4.104-1.131 6.769-3.716.502-.851 1.284-2.354 2.081-4.597.905-2.549 2.509-6.585 4.213-9.898zm-10.305 9.227c.274-.723.53-1.395.787-2.026a17.1 17.1 0 00-2.727.707c-1.064 1.974-1.309 4.244-1.682 5.954-.722 3.315-4.042 7.384-5.875 7.623-1.163.151-1.763-.738-2.048-1.408-.222.757-.4 1.481-.522 2.145-.276 1.504-.773 2.662-1.284 3.525 2.15-.893 7.152-3.294 9.255-7.041l.052-.092c.74-1.558 1.882-4.015 2.832-6.297a96.691 96.691 0 001.212-3.09zM440.04 161.551c5.124-6.342 17.393-20.645 30.936-30.109-21.522-6.545-43.859-9.329-63.131-10.29-11.157.346-22.312 1.048-32.276 1.849 46.307-.591 82.624 10.389 83.078 10.529l.819.252-.635.553c-10.25 8.916-16.25 21.126-18.791 27.216zM336.681 142.38c1.078 2.01 1.548 4.935 1.728 6.427l.556.645 1.008 1.171c-.393-2.726-1.366-8.119-3.12-10.209-.921-1.096-2.158-1.936-3.468-2.824-.787-.534-1.584-1.075-2.314-1.68.112.466.269 1.077.467 1.763 1.613 1.482 4.051 2.669 5.143 4.707zm-.914 58.264c1.503-2.777 4.495-8.829 4.043-12.232-.285-2.143-1.092-5.334-1.872-8.421-.261-1.03-.493-1.953-.694-2.781a33.782 33.782 0 00-.785 2.188c.111 5.043 2.397 7.972 2.274 9.967-.108 1.758-2.424 6.055-3.355 7.72a73.54 73.54 0 01.389 3.559zm4.525-48.14a418.563 418.563 0 00-2.099-2.447 579.558 579.558 0 01-3.175-3.706c.09.434.199.934.323 1.47 1.674 2.261 4.617 5.733 5.09 6.967.453 1.181.217 3.667.052 4.949a146 146 0 001.661 2.819 54.974 54.974 0 00-.323-4.551l-.056-.184.033-.01c-.277-2.271-.744-4.404-1.506-5.307zM451.807 49.425l.825-.097-.296.74c-4.653 11.614-5.149 30.968-5.111 39.802 3.374-13.074 10.667-40.02 15.992-50.389-2.892.642-9.769 2.386-19.686 6.268-42.674 19.358-74.877 48.834-91.753 65.979 31.047-28.089 55.178-43.254 70.603-51.202 18.989-9.786 29.009-11.052 29.426-11.101zM328.885 203.993a24.49 24.49 0 00-1.287 2.133c-.194 3.504.726 6.894.583 9.203-.144 2.341-2.289 4.959-3.267 6.038-.107 1.26-.226 2.482-.361 3.594 1.34-1.29 3.639-3.874 4.262-6.925.464-2.267.326-5.838.192-9.292-.065-1.674-.128-3.3-.122-4.751zm5.237-8.765c-.106-.77-.209-1.529-.303-2.265a56.067 56.067 0 00-1.222 2.34c.14 3.508 1.352 6.134 1.147 9.069-.185 2.634-2.471 5.263-3.662 6.465.037 1.165.062 2.315.049 3.395 1.499-1.951 4.325-6.045 4.677-9.607.253-2.554-.225-6.033-.686-9.397zm6.282-47.989c.39 1.895.617 3.585.716 4.403l.069.424c.856 1.162 1.344 3.459 1.62 5.763 12.422 39.785 12.56 108.027 12.56 108.713l-.001 1.067-.833-.712c-6.383-5.45-16.188-11.111-21.956-14.25 7.319 6.372 22.606 19.837 27.774 25.595-.232-26.655-2.227-49.866-4.865-69.195-5.839-31.283-13.602-60.319-15.084-61.808zm-1.033-8.094l2.156 2.9c29.441 39.602 62.349 114.156 62.678 114.904l.394.896-23.874-6.105 32.639 15.549a393.01 393.01 0 00-5.47-13.927c-17.998-34.664-57.044-106.663-68.523-114.217zm4.245-4.098c16.316 8.223 68.306 35.745 105.601 70.293l.514.477-27.492 12.528 37.226-10.929c-13.872-12.837-35.279-27.825-56.279-41.358-27.18-16.411-49.829-26.568-59.57-31.011zm-25.298 89.768a54.205 54.205 0 00-1.833 1.814c-.569 1.602-.737 3.435-.491 4.838.437 2.501-.563 5.3-1.688 6.67-.831 1.012-2.24 1.21-2.92 1.245-.319 1.705-.716 3.426-1.287 5.038 1.695-1.315 4.529-3.82 5.873-6.771 1.153-2.529 1.671-7.031 2.087-10.649.087-.763.172-1.497.259-2.185zm3.863 1.769c-.811 2.105-2.704 3.64-3.589 4.269-.199 1.44-.431 2.855-.729 4.138 1.681-1.396 4.69-4.302 5.326-7.658.566-2.982.902-8.084 1.172-12.183l.081-1.224c-.32.483-.716 1.092-1.142 1.773-.935 3.717.278 7.257-1.119 10.885zm-18.099 14.875c-.382.249-.877.584-1.429.98-1.175 1.896-2.068 4.728-3.034 8.024-1.011 3.45-2.563 7.802-4.071 8.657-.986.559-1.773-.167-2.2-.737a51.537 51.537 0 01-1.206 3.043 16.756 16.756 0 01-1.869 3.189c2.929-1.79 7.795-5.323 9.564-9.909 1.4-3.629 2.723-8.106 3.786-11.703l.459-1.544zm7.503-9.184c-.3.184-.696.45-1.148.806-.918 2.132-1.518 5.059-1.381 6.366.188 1.786-2.125 7.86-3.696 8.277-.969.258-1.571-.279-1.891-.728a146.384 146.384 0 01-1.972 6.071c1.704-.964 5.013-3.232 6.918-7.151 1.447-2.976 2.026-6.712 2.538-10.008.205-1.319.399-2.548.632-3.633zm-17.711 21.528c.604-1.816 1.174-3.527 1.761-5-.569.317-1.324.77-2.142 1.331-1.932 2.874-2.709 6.893-3.113 8.488-.949 3.738-3.324 7.622-4.949 8.088-1.059.304-1.611-.301-1.869-.76-.175.464-.333.897-.47 1.281a31.173 31.173 0 01-1.392 3.336c.224-.071.493-.159.801-.259 2.016-1.268 6.664-4.578 8.719-9.25.996-2.264 1.839-4.801 2.654-7.255z" class="Shadow_4"/><path fill="rgb(198,196,195)" d="M328.375 129.811a9.729 9.729 0 01.681-2.489c-9.079-4.388-12.741-15.475-12.85-16.383.448 4.486 2.597 13.236 12.169 18.872z"/><path fill="rgb(190, 169, 145)" fill-rule="evenodd" d="M418.574 126.523c-21.468-2.782-49.531-4.213-78.841.349a892.96 892.96 0 017.234 4.083c7.633-.92 41.232-4.729 71.607-4.432zm38.394.205c4.159.956 8.32 2.031 12.455 3.245-4.272-3.69-13.474-13.044-23.97-32.344l-.128-.234.063-.257c.071-.29.385-1.565.89-3.562-.131-5.124-.432-29.048 4.822-43.069-.922.17-2.608.53-5.018 1.228-13.612 15.611-33.711 42.633-32.963 44.771.752 2.15 29.592 21.004 43.849 30.222zm-109.987 33.266c7.351 12.467 32.086 52.902 43.75 70.383-11.87-24.552-30.44-60.612-48.054-85.093.971 2.925 2.513 7.874 4.304 14.71zm64.16-92.098c-17.2 10.264-41.062 27.34-70.325 55.369 1.975-.301 5.79-.842 11.039-1.411 5.793-5.846 34.265-34.278 59.286-53.958zm-71.193 66.397c1.575 2.054 4.541 5.99 8.474 11.504 7.624 3.203 39.036 16.679 64.27 31.616-32.455-22.847-64.728-39.178-72.744-43.12zm51.171 59.399c-1.121 1.423 4.349 22.351 9.376 40.485 4.679 9.959 9.128 20.323 13.124 30.941v-44.243l2.104-.617 32.282-14.711c-.563-.518-1.13-1.035-1.699-1.55-17.189-4.009-53.661-12.244-55.187-10.305zm46.389-28.919c.014-.019.159-.211.42-.552 1.332-3.687 7.372-18.971 19.45-29.896-15.91 5.547-51.926 18.323-51.926 20.302 0 1.494 17.158 19.006 31.305 33.191 8.063 5.92 15.45 11.757 21.562 17.241l-21.073-39.935.262-.351zm-67.389 60.014c-1.417 1.103-5.883 20.1-9.287 33.287.266 6.161.444 12.536.512 19.127l13.156-28.427 1.754.836 26.63 6.81c-.19-.426-.449-1.005-.767-1.711-10.329-10.637-30.515-31.078-31.998-29.922zm-39.334 8.858c-1.631.492-7.186 4.319-13.422 8.699 1.025-1.545 2.065-3.144 2.506-3.925 4.25-4.153 6.25-7.131 6.5-9.334 3.75-3.394 6.25-7.682 6.25-10.54 3-3.812 6.553-7.484 5.75-13.34 2.75-4.764 5.25-8.099 4.75-11.195a14.718 14.718 0 011.842-2.576c2.694 12.267 6.065 28.545 8.247 42.398-1.313-21.618-4.109-49.824-10.067-71.337.027.866.029 1.502.028 1.754 1.712 3.347.55 9.184.341 10.145 1.588 4.48-2.184 12.931-2.695 14.04.498 4.638-4.34 13.024-4.946 14.052.019.789.003 1.539-.065 2.228-.475 4.81-4.961 10.257-5.729 11.157-.051.865-.137 1.66-.278 2.348-.877 4.291-4.652 7.585-5.448 8.239-.056.368-.114.72-.176 1.044-.891 4.7-5.817 8.397-6.731 9.048a13.02 13.02 0 01-.552 1.479c-1.955 4.29-6.673 7.555-7.482 8.093-.03.064-.055.131-.086.195-2.536 5.217-7.275 7.615-8.312 8.089-.079.209-.156.424-.235.628-2.609 6.765-11.207 11.156-12.277 11.681a27.195 27.195 0 01-2.77 2.509c9.255-3.184 29.634-10.808 41.927-20.036l.497-.374.469.404.706.609c3.639 1.883 16.718 8.834 25.036 15.658l-.005-.582c-6.367-10.109-20.405-32.213-23.573-31.258z" class="Shadow_5"/></g><g class="Body"><path fill="rgb(0,0,0)" d="M282.034 327.736l-.053-.129c-3.462-8.469-5.247-21.866-5.495-23.824.989-1.832 2.054-3.698 3.084-5.505 4.865-8.526 9.895-17.343 9.726-27.021-.114-6.554-2.365-12.029-6.691-16.273-10.784-10.583-30.674-10.115-32.605-10.045-1.93-.072-21.821-.538-32.605 10.045-4.326 4.244-6.577 9.719-6.691 16.273-.169 9.679 4.861 18.496 9.726 27.022a268.875 268.875 0 013.084 5.504c-.248 1.958-2.032 15.352-5.495 23.824l-.053.129-.004.14c-.017.552-.306 13.63 8.397 23.004 5.548 5.975 13.47 9.022 23.549 9.059h.184c10.079-.037 18.001-3.084 23.549-9.059 8.703-9.374 8.414-22.452 8.397-23.004l-.004-.14z"/><path fill="#4B4F53" fill-rule="evenodd" d="M225.951 262.892c2.374 3.164 6.985 7.351 11.445 11.4 5.579 5.065 10.882 9.88 12.604 13.222 1.722-3.342 7.025-8.157 12.604-13.222 4.46-4.049 9.071-8.236 11.445-11.4 4.377-5.832.656-10.725-.857-12.324-9.969-4.359-21.633-4.183-23.1-4.14v.006l-.184-.006c-1.463-.041-13.131-.214-23.1 4.142-1.511 1.603-5.224 6.504-.857 12.322zm61.918 8.392c-.108-6.137-2.207-11.256-6.241-15.214-1.907-1.871-4.138-3.381-6.517-4.6 1.712 2.543 3.455 7.015-.313 12.035-2.43 3.239-7.076 7.457-11.569 11.536-5.864 5.325-11.929 10.831-12.772 13.878l-.457 1.652-.457-1.652c-.843-3.047-6.908-8.553-12.772-13.878-4.493-4.079-9.139-8.297-11.569-11.536-3.767-5.019-2.026-9.489-.315-12.033-2.38 1.219-4.611 2.729-6.518 4.6-4.032 3.959-6.131 9.077-6.238 15.212-.009.516.001 1.029.022 1.541.523-.759 1.244-1.47 2.167-1.627 1.201-.204 2.435.555 3.665 2.257 1.143 1.584 2.995 6.492 5.338 12.707 4.802 12.731 12.058 31.969 17.964 33.862.883.283 1.688.153 2.462-.4 2.564-1.83 4.668-4.179 5.924-6.614l.419-.813.419.813a18.705 18.705 0 005.74 6.614c.774.553 1.579.684 2.462.4 5.906-1.893 13.162-21.131 17.964-33.862 2.343-6.215 4.195-11.123 5.338-12.707 1.23-1.702 2.461-2.462 3.665-2.257.923.157 1.644.868 2.167 1.627.021-.512.031-1.025.022-1.541zm-13.068 5.345c-.42 1.626-6.412 24.275-14.896 27.188a5.56 5.56 0 01-1.816.313c-1.304 0-2.592-.493-3.851-1.464-2.444 3.895-3.786 6.649-3.813 6.705l-.425.881-.425-.881c-.027-.056-1.369-2.81-3.813-6.705-1.259.971-2.547 1.464-3.851 1.464a5.56 5.56 0 01-1.816-.313c-8.484-2.913-14.476-25.562-14.896-27.188-3.267-4.902-5.017-8.553-5.047-8.615 0 0 6.046 10.402 15.274 19.79 7.888 8.024 13.103 17.46 14.574 20.283 1.471-2.823 6.686-12.259 14.574-20.283 9.228-9.388 15.274-19.79 15.274-19.79-.03.062-1.78 3.713-5.047 8.615zm2.121 53.506c-1.912 0-3.41-3.146-3.41-7.162s1.498-7.161 3.41-7.161c.055 0 .108.007.162.012a149.783 149.783 0 01-1.85-10.6c-2.457 5.149-9.756 19.294-18.69 25.956 1.02.557 3.31 1.509 6.521 1.111l.37-.047c3.138-.393 7.044-.882 8.741 1.399 1.107 1.489 1.04 3.839-.203 7.186l-.025.055c-3.501 6.791-7.426 10.353-11.666 10.587-5.048.285-8.921-4.238-10.165-5.897-3.522 5.486-7.096 6.808-9.721 6.808-.276 0-.542-.014-.796-.04-5.596-.573-9.731-6.56-11.572-11.513-1.244-3.347-1.31-5.697-.204-7.186 1.697-2.281 5.602-1.792 8.741-1.399l.37.047c3.228.4 5.508-.552 6.524-1.11-8.935-6.661-16.235-20.807-18.693-25.957a149.585 149.585 0 01-1.85 10.6c.053-.005.107-.012.162-.012 1.912 0 3.41 3.145 3.41 7.161s-1.498 7.162-3.41 7.162c-1.332 0-2.466-1.498-3.03-3.82a44.917 44.917 0 01-.661 1.741c-.006 1.396.178 13.375 8.007 21.797 5.286 5.686 12.891 8.578 22.606 8.596 9.722-.018 17.33-2.914 22.616-8.606 7.832-8.436 8.005-20.393 7.997-21.787a44.917 44.917 0 01-.661-1.741c-.564 2.322-1.698 3.82-3.03 3.82z" class="Color_1"/><path fill="#EFF1F1" fill-rule="evenodd" d="M259.607 302.874c6.446-2.214 11.615-17.466 13.51-23.806-2.15 3.007-4.786 6.301-7.879 9.448-4.394 4.47-7.947 9.383-10.472 13.318 1.61 1.258 3.196 1.605 4.841 1.04zm-19.214 0c1.645.565 3.232.218 4.841-1.04-2.525-3.935-6.078-8.848-10.472-13.318-3.092-3.147-5.729-6.441-7.879-9.448 1.896 6.341 7.066 21.593 13.51 23.806zm23.155 30.357l-.371.046c-4.812.596-7.676-1.575-7.796-1.668l-.54-.419.559-.392c10.864-7.613 19.761-27.692 19.85-27.894l.059.028a277.616 277.616 0 013.035-5.416c4.194-7.353 8.513-14.926 9.373-22.951-.415-.928-1.197-2.219-2.192-2.387-.825-.14-1.75.492-2.75 1.876-1.065 1.475-2.987 6.571-5.213 12.472-5.159 13.679-12.225 32.414-18.569 34.448a3.79 3.79 0 01-1.159.189c-.74 0-1.449-.24-2.12-.719a19.716 19.716 0 01-5.625-6.199c-1.349 2.295-3.383 4.472-5.803 6.199-1.014.724-2.117.903-3.279.53-6.344-2.034-13.41-20.769-18.569-34.448-2.226-5.901-4.148-10.997-5.213-12.472-1-1.385-1.925-2.016-2.75-1.876-.995.168-1.777 1.46-2.192 2.388.86 8.025 5.179 15.598 9.374 22.951a272.365 272.365 0 013.034 5.415l.059-.028c.089.202 8.986 20.281 19.85 27.894l.559.392-.54.419c-.12.093-2.984 2.264-7.796 1.668l-.371-.046c-2.748-.345-6.509-.816-7.876 1.022-.872 1.173-.758 3.264.339 6.216 1.881 5.061 5.943 10.39 10.778 10.884 3.57.366 7.026-2.026 9.997-6.913l.386-.637.409.622c.033.052 2.793 4.195 6.776 5.603.931.328 1.929.508 2.975.451 3.878-.217 7.532-3.594 10.86-10.039 1.087-2.936 1.197-5.018.328-6.187-1.366-1.837-5.129-1.366-7.876-1.022zm13.374-16.426c-1.163 0-2.458 2.533-2.458 6.168 0 3.635 1.295 6.168 2.458 6.168.96 0 2.091-1.768 2.386-4.738-.771-2.427-1.431-5.007-1.986-7.493a.965.965 0 00-.4-.105z" class="Color_2"/><path fill="rgb(49, 52, 54)" fill-rule="evenodd" d="M279.014 269.634a86.505 86.505 0 01-4.213 6.995c-.42 1.626-6.412 24.275-14.896 27.188a5.56 5.56 0 01-1.816.313c-1.304 0-2.592-.493-3.851-1.464a93.695 93.695 0 00-1.55 2.559c1.505.967 7.722 4.528 11.729.301 4.586-4.837 9.742-22.504 12.994-31.42 1.123-2.598 1.493-3.862 1.603-4.472zm.938 56.681c-.564 2.322-1.698 3.82-3.03 3.82-1.912 0-3.41-3.146-3.41-7.162s1.498-7.161 3.41-7.161c.055 0 .108.007.162.012a149.585 149.585 0 01-1.85-10.6 115.319 115.319 0 01-3.689 7.071c-.103.183-.209.367-.315.553a96.14 96.14 0 01-.441.763l-.315.535c-3.516 5.944-8.409 12.917-13.93 17.034h.001c5.838-1.594 10.704-7.203 13.48-11.084 1.101 7.716 8.387 11.631 4.951 22.742-1.799 4.178-5.252 9.035-11.763 10.226-5.981 1.094-9.178-.094-11.126-1.235a5.01 5.01 0 00-.546-.953c-.517-.674-.957-.687-1.541-.385-.584-.302-1.024-.289-1.541.385a5.01 5.01 0 00-.546.953c-1.948 1.141-5.145 2.329-11.126 1.235-6.511-1.191-9.964-6.048-11.763-10.226-3.436-11.111 3.85-15.026 4.951-22.742 2.776 3.882 7.644 9.492 13.484 11.085-5.531-4.123-10.432-11.113-13.95-17.064l-.286-.485-.469-.811c-.096-.168-.191-.334-.284-.5a115.765 115.765 0 01-3.704-7.097 149.585 149.585 0 01-1.85 10.6c.053-.005.107-.012.162-.012 1.912 0 3.41 3.145 3.41 7.161s-1.498 7.162-3.41 7.162c-1.332 0-2.466-1.498-3.03-3.82a44.917 44.917 0 01-.661 1.741c-.004.847.066 5.593 1.868 11.075l.024.072c.073.219.147.438.226.659l.019.054c.235.66.495 1.328.784 1.999l.065.153a37.428 37.428 0 00.77 1.629c.072.142.144.284.219.426.073.138.149.275.224.413.069.126.138.253.209.379a28.628 28.628 0 00.955 1.56c.065.098.133.196.199.294a26.145 26.145 0 00.932 1.29c.075.097.15.195.227.292.137.173.278.344.421.515.068.082.135.164.205.245a22.064 22.064 0 001.545 1.64c5.237 5.09 12.534 7.681 21.721 7.698 9.189-.017 16.488-2.609 21.724-7.7.301-.29.596-.588.882-.896l.007-.007.003-.003c.224-.242.441-.488.654-.736.067-.078.132-.158.198-.238.146-.174.291-.35.431-.527l.213-.274c.132-.172.262-.344.389-.518.065-.089.13-.177.193-.266.137-.191.269-.383.399-.576.047-.07.096-.14.142-.211a28 28 0 001.003-1.638l.063-.115a29.06 29.06 0 00.812-1.559l.084-.173a31.43 31.43 0 00.377-.82c.377-.854.708-1.704.997-2.54l.026-.077a30.622 30.622 0 00.276-.834c.029-.093.06-.186.088-.279l-.003-.003c1.594-5.193 1.658-9.591 1.655-10.403a44.917 44.917 0 01-.661-1.741zm-54.001-63.423c2.374 3.164 6.985 7.351 11.445 11.4 5.579 5.065 10.882 9.88 12.604 13.222 1.722-3.342 7.025-8.157 12.604-13.222 4.46-4.049 9.071-8.236 11.445-11.4 4.377-5.832.656-10.725-.857-12.324-9.969-4.359-21.633-4.183-23.1-4.14v.006l-.184-.006c-1.463-.041-13.131-.214-23.1 4.142-1.511 1.603-5.224 6.504-.857 12.322zm4.264-8.583c5.846-5.948 16.791-6.116 19.785-6.12 2.994.004 13.939.172 19.785 6.12 6.096 6.203-9.031 19.63-10.935 21.713-1.904 2.084-8.85 9.75-8.85 9.75s-6.946-7.666-8.85-9.75c-1.904-2.083-17.031-15.51-10.935-21.713zm48.815 14.776s-7.024 9.104-9.953 11.354c-2.586 1.986-16.559 13.158-19.077 22.199-2.518-9.041-16.491-20.213-19.077-22.199-2.929-2.25-9.953-11.354-9.953-11.354s-.033.042-.024.232c1.922 3.075 7.213 11.094 14.48 18.487 7.888 8.024 13.103 17.46 14.574 20.283 1.471-2.823 6.686-12.259 14.574-20.283 7.267-7.393 12.558-15.412 14.48-18.487.009-.19-.024-.232-.024-.232zm8.839 2.199c-.063-3.575-.806-6.802-2.21-9.658l-.051-.102a20.688 20.688 0 00-.562-1.049l-.077-.134a20.006 20.006 0 00-1.425-2.11c-.064-.083-.13-.164-.195-.246-.2-.251-.406-.497-.619-.74-.076-.087-.151-.175-.229-.261-.28-.309-.568-.615-.87-.912l-.003-.002c-.101-.099-.207-.193-.309-.29-.126-.119-.25-.239-.378-.355-1.748-1.576-3.731-2.879-5.83-3.955 1.712 2.543 3.455 7.015-.313 12.035-2.43 3.239-7.076 7.457-11.569 11.536-5.864 5.325-11.929 10.831-12.772 13.878l-.457 1.652-.457-1.652c-.843-3.047-6.908-8.553-12.772-13.878-4.493-4.079-9.139-8.297-11.569-11.536-3.767-5.019-2.026-9.489-.315-12.033-2.099 1.075-4.081 2.377-5.828 3.953-.234.211-.464.426-.69.647a22.66 22.66 0 00-.872.914c-.078.086-.153.174-.23.262-.212.242-.418.489-.618.739-.065.082-.131.163-.194.245-.522.676-.997 1.38-1.425 2.11l-.077.137a19.83 19.83 0 00-.562 1.046l-.051.102c-1.403 2.856-2.146 6.082-2.209 9.657-.009.516.001 1.029.022 1.541.523-.759 1.244-1.47 2.167-1.627 1.201-.204 2.435.555 3.665 2.257.049.069.101.146.153.227.02.03.04.064.06.096l.1.165.079.137.087.156a12.761 12.761 0 01.169.318l.111.216.06.121c.043.088.086.175.13.268l.028.059c.113.236.228.486.348.753l.003.007c.075.166.151.339.229.517a140.79 140.79 0 01-.224-2.657c.087-3.31.591-9.526 3.073-11.774 1.309 2.375 1.071 6.375 11.779 13.5s15.372 13.354 15.83 17.281v.001-.001c.457-3.927 5.122-10.156 15.83-17.281 10.708-7.125 10.47-11.125 11.779-13.5 2.482 2.248 2.986 8.464 3.073 11.774a140.79 140.79 0 01-.224 2.657c.078-.178.154-.351.229-.517l.003-.007a33.216 33.216 0 01.375-.81l.132-.272.059-.118.112-.22.072-.137a13.773 13.773 0 01.181-.33l.081-.142.098-.16.062-.101c.051-.078.101-.152.149-.22l.004-.005v-.001c1.23-1.702 2.464-2.461 3.665-2.257.923.157 1.644.868 2.167 1.627.021-.512.031-1.025.022-1.541zm-40.557 33.941a95.246 95.246 0 00-1.55-2.559c-1.259.971-2.547 1.464-3.851 1.464a5.56 5.56 0 01-1.816-.313c-8.484-2.913-14.476-25.562-14.896-27.188a86.505 86.505 0 01-4.213-6.995c.11.609.48 1.874 1.603 4.472 3.252 8.916 8.408 26.583 12.994 31.42 4.007 4.227 10.224.666 11.729-.301zm13.377 9.839c-4.183 2.209-7.424 1.3-9.818-1.404a18.74 18.74 0 005.38 5.964c.774.553 1.579.684 2.462.4 4.304-1.379 9.323-11.968 13.588-22.538-3.736 7.151-8.833 16.11-11.612 17.578zm-19.402 4.96c.883.283 1.688.153 2.462-.4 2.564-1.83 4.668-4.179 5.924-6.614l.024-.048c-2.44 3.233-5.861 4.491-10.386 2.102-2.779-1.468-7.876-10.426-11.612-17.577 4.265 10.569 9.284 21.158 13.588 22.537z" class="Shadow_1"/><path fill="#c6cdcd" fill-rule="evenodd" d="M241.59 299.522c-.712 1.934-2.384 2.3-4.572.98 1.075 1.133 2.203 1.97 3.375 2.372 1.645.565 3.232.218 4.841-1.04-2.525-3.935-6.078-8.848-10.472-13.318-3.092-3.147-5.729-6.441-7.879-9.448a114.73 114.73 0 001.98 6.014c2.635 2.249 13.674 11.87 12.727 14.44zm-.583 21.452c-1.488-.477-3.016-1.882-4.549-3.916.799 1.633 2.077 3.493 4.124 5.321 4.011 3.581 7.564-.664 9.418-5.515 1.855 4.851 5.407 9.096 9.418 5.515 2.048-1.828 3.325-3.689 4.125-5.321-1.534 2.034-3.062 3.439-4.55 3.916a3.79 3.79 0 01-1.159.189c-.74 0-1.449-.24-2.12-.719a19.716 19.716 0 01-5.625-6.199c-1.349 2.295-3.383 4.472-5.803 6.199-1.014.724-2.117.903-3.279.53zm44.518-48.796c-.825-.14-1.75.491-2.75 1.876-.631.874-1.565 3.026-2.683 5.858-.498 4.142-1.221 8.473-2.247 12.812-1.491 4.197-3.285 9.004-4.48 11.386-2.966 5.916-10.597 21.075-21.733 25.246 2.856 2 5.79 7.416 13.881 5.75 8.09-1.667 3.569 9.61.793 11.388-2.776 1.778-11.672 6.445-16.306-6.138-4.634 12.583-13.53 7.916-16.306 6.138-2.776-1.778-7.297-13.055.793-11.388 8.091 1.666 11.025-3.75 13.881-5.75-11.136-4.171-18.767-19.33-21.733-25.246-1.195-2.382-2.989-7.189-4.48-11.386-1.026-4.339-1.749-8.67-2.247-12.812-1.118-2.832-2.052-4.984-2.683-5.858-1-1.385-1.925-2.016-2.75-1.876-.995.168-1.777 1.46-2.192 2.388.52 4.847 2.305 9.528 4.558 14.097 1.099 2.228 2.307 4.428 3.539 6.607l.12.213c.385.679.771 1.358 1.157 2.034a272.365 272.365 0 013.034 5.415l.059-.028.015.034a3.345 3.345 0 00.043.095l.135.298.016.034.084.183.014.03c.074.16.16.345.26.556l.008.017a62.327 62.327 0 00.161.339c.171.358.371.769.597 1.227l.02.041c.225.455.476.954.751 1.492l.031.06.278.539.001.002c3.375 6.497 9.937 17.692 17.436 22.947l.559.392-.54.419c-.12.093-2.984 2.264-7.796 1.668l-.371-.046c-2.748-.345-6.509-.816-7.876 1.022-.872 1.173-.758 3.264.339 6.216 1.881 5.061 5.943 10.39 10.778 10.884 3.57.366 7.026-2.026 9.997-6.913l.386-.637.409.622c.041.064 4.231 6.356 9.751 6.054 3.878-.217 7.532-3.594 10.86-10.039 1.087-2.936 1.197-5.018.328-6.187-1.366-1.837-5.129-1.366-7.876-1.022l-.371.046c-4.812.596-7.676-1.575-7.796-1.668l-.54-.419.559-.392c7.499-5.255 14.061-16.45 17.436-22.947l.001-.002.28-.543.026-.05c.277-.54.528-1.042.754-1.498l.02-.041a84.987 84.987 0 00.614-1.263l.141-.297.012-.025c.098-.207.183-.39.256-.547l.021-.045.076-.165.024-.052.062-.137.027-.06.038-.082.018-.041.018-.041.026-.058.059.028a277.616 277.616 0 013.043-5.43c.383-.672.767-1.347 1.149-2.022l.119-.209c3.758-6.649 7.324-13.495 8.097-20.705-.415-.928-1.197-2.22-2.192-2.388zm-25.918 30.696c1.172-.403 2.301-1.24 3.376-2.372-2.188 1.32-3.86.954-4.573-.98-.947-2.571 10.095-12.193 12.728-14.441a114.91 114.91 0 001.979-6.013c-2.15 3.007-4.786 6.301-7.879 9.448-4.394 4.47-7.947 9.383-10.472 13.318 1.61 1.258 3.196 1.605 4.841 1.04zm-36.529 13.931a.965.965 0 00-.4.105c-.555 2.486-1.215 5.065-1.986 7.492.295 2.971 1.425 4.739 2.386 4.739 1.163 0 2.458-2.533 2.458-6.168 0-3.635-1.295-6.168-2.458-6.168zm53.844 0c-1.163 0-2.458 2.533-2.458 6.168 0 3.635 1.295 6.168 2.458 6.168.961 0 2.091-1.768 2.386-4.739-.771-2.427-1.431-5.006-1.986-7.492a.965.965 0 00-.4-.105z" class="Shadow_2"/></g><g class="Legs"><path fill="rgb(0,0,0)" d="M226.081 309.966c-6.854-9.538-15.112-12.976-23.883-9.941-6.372 2.206-10.716 6.121-12.91 11.639-5.553 13.962 4.193 33.678 6.299 37.661-4.163 2.069-4.157 6.845-4.074 8.138-3.852 4.573-8.672 14.537-8.155 16.936.102.475.378.697.592.8.463.222 1.162.561 8.728-2.96a235.056 235.056 0 005.344-2.579c-1.102 2.994-1.84 5.62-1.433 6.472.133.277.362.475.647.558.079.023.177.033.293.033 2.177 0 10.553-3.933 15.567-6.387-1.915 4.975-1.473 6.285-.732 6.865.189.148.43.337 1 .337 1.209 0 3.893-.849 10.683-4.732a223.544 223.544 0 009.324-5.681l.085-.055.067-.076c8.468-9.589 4.434-40.502-7.442-57.028z"/><path fill="rgb(255,255,255)" fill-rule="evenodd" d="M225.11 359.384c-2.81-.427-5.275 1.305-6.347 2.213-3.659 6.956-6.131 13.494-5.462 14.467 1.549.422 10.908-4.761 18.908-9.928-2.019-4.069-4.405-6.342-7.099-6.752zm-23.656 2.009c-1.366-3.81-6.798-3.502-8.537-3.299l-.057.067c-3.923 4.505-8.004 13.64-8.057 15.689 1.721-.295 8.186-3.251 13.991-6.207a156.798 156.798 0 012.66-6.25zm12.646 6.5a107.486 107.486 0 012.26-4.844c-2.891-2.725-5.724-4.076-8.433-4.019-2.185.049-3.753 1.037-4.504 1.632-2.725 5.95-5.455 12.905-5.49 14.624 1.793-.298 9.267-3.647 15.99-6.981l.177-.412z"/><path fill="#EFF1F1" fill-rule="evenodd" d="M202.706 301.385c-5.943 2.057-9.986 5.689-12.017 10.796-5.828 14.654 6.465 36.923 6.59 37.146l.403.721-.793.295c-3.802 1.418-3.965 5.385-3.899 6.777 1.969-.199 7.051-.348 9.008 3.074l.016-.036c.218-1.307.836-3.819 2.573-6.565 3.115-4.806 10.304-1.27 10.304-1.27-.073-.017-7.234-1.732-9.45 1.771a17.5 17.5 0 00-2.308 5.559 8.533 8.533 0 014.75-1.585c2.913-.076 5.916 1.296 8.934 4.067.165-.328.311-.614.431-.847.073-3.576.805-6.211 2.195-7.813 4.884-5.17 11.59.193 11.59.193-.073-.037-7.315-3.62-10.822.424-1.171 1.35-1.822 3.587-1.949 6.645 1.268-1.046 3.899-2.778 7.004-2.305 2.955.45 5.531 2.782 7.668 6.934 3.314-4.502 4.45-13.415 3.032-24.167-1.51-11.456-5.666-22.824-11.118-30.411-4.481-6.235-11.96-12.927-22.142-9.403zm-6.548 19.93l-1.14 4.393-2.555-3.743 1.507-3.574 2.188 2.924zm5.755 4.331l-.906 4.268-2.824-2.463.723-4.429 3.007 2.624zm-5.617-9.979l2.244-4.507 1.905 4.381-2.38 3.475-1.769-3.349z" class="Color_2"/><path fill="#4B4F53" fill-rule="evenodd" d="M199.58 324.937l-.343 2.106 1.169 1.02.431-2.029-1.257-1.097zm-1.11-11.431l-1.06 2.13.777 1.472 1.131-1.652-.848-1.95zm-4.887 8.327l1.03 1.511.468-1.802-.88-1.176-.618 1.467z" class="Color_1"/><path fill="rgb(185,185,185)" fill-rule="evenodd" d="M214.1 367.893a107.486 107.486 0 012.26-4.844 19.975 19.975 0 00-2.427-1.97c-1.055.998-2.045 2.249-2.398 2.953-2.083 4.157-9.364 6.907-10.698 6.824-1.329-.083-.01-4.208-.001-4.237-1.638 3.991-2.879 7.512-2.903 8.667 1.793-.298 9.267-3.647 15.99-6.981l.177-.412zm-12.646-6.5a4.291 4.291 0 00-.978-1.556c-1.472.782-3.487 3.123-4.024 4.195-2.083 4.157-8.25 6.99-9.583 6.907-.614-.038-.661-.867-.535-1.75-.928 2.136-1.512 3.894-1.531 4.661 1.721-.295 8.186-3.251 13.991-6.207a156.798 156.798 0 012.66-6.25zm27.504.041c-.979.962-1.87 2.103-2.2 2.763-2.084 4.157-9.365 6.907-10.698 6.824-.932-.058-.563-2.1-.255-3.328-1.915 4.327-2.969 7.694-2.504 8.371 1.549.422 10.908-4.761 18.908-9.928-.996-2.008-2.083-3.577-3.251-4.702z"/><path fill="#c6cdcd" fill-rule="evenodd" d="M235.966 341.199c-1.51-11.456-5.666-22.824-11.118-30.411-4.481-6.235-11.96-12.927-22.142-9.403-5.943 2.057-9.986 5.689-12.017 10.796-5.828 14.654 6.465 36.923 6.59 37.146l.403.721-.793.295c-1.511.564-2.441 1.531-3.017 2.579 1.839-.905 5.67-2.3 8.791-.198-2.081 1.196-2.631 3.902-2.774 5.437.845.471 1.589 1.123 2.109 2.033l.016-.036c.202-1.208.757-3.449 2.21-5.95l.008-.031.021-.018c.111-.189.214-.375.334-.566 3.115-4.806 10.304-1.27 10.304-1.27-.067-.016-6.049-1.446-8.772.98 2.671-.66 7.465-.724 10.505 1.421-.642 1.035-1.864 3.28-2.081 5.586a20.702 20.702 0 012.274 1.825c.165-.328.311-.614.431-.847.073-3.576.805-6.211 2.195-7.813 4.884-5.17 11.59.193 11.59.193-.073-.037-7.315-3.62-10.822.424a6.023 6.023 0 00-.887 1.416c3.233-2.03 9.001-1.587 11.958 1.004-.58.948-1.435 2.468-1.954 3.932 1.31 1.163 2.515 2.804 3.606 4.922 3.314-4.502 4.45-13.415 3.032-24.167zm-25.293-4.093c-16.113.572-19.927-10.369-20.054-14.408-.75-23.745 26.674-22.678 32.841-9.373 2.886 6.227 3.325 23.209-12.787 23.781z" class="Shadow_2"/><path fill="rgb(0,0,0)" d="M273.919 309.966c6.854-9.538 15.112-12.976 23.883-9.941 6.372 2.206 10.716 6.121 12.91 11.639 5.553 13.962-4.193 33.678-6.299 37.661 4.163 2.069 4.157 6.845 4.074 8.138 3.852 4.573 8.672 14.537 8.155 16.936-.102.475-.378.697-.592.8-.463.222-1.162.561-8.728-2.96a235.056 235.056 0 01-5.344-2.579c1.102 2.994 1.84 5.62 1.433 6.472a1.034 1.034 0 01-.647.558 1.07 1.07 0 01-.293.033c-2.177 0-10.553-3.933-15.567-6.387 1.915 4.975 1.473 6.285.732 6.865-.189.148-.43.337-1 .337-1.209 0-3.893-.849-10.683-4.732a223.544 223.544 0 01-9.324-5.681l-.085-.055-.067-.076c-8.468-9.589-4.434-40.502 7.442-57.028z"/><path fill="rgb(255,255,255)" fill-rule="evenodd" d="M267.791 366.136c8 5.167 17.359 10.35 18.908 9.928.669-.973-1.803-7.511-5.462-14.467-1.072-.908-3.537-2.64-6.347-2.213-2.694.41-5.08 2.683-7.099 6.752zm33.415 1.507c5.805 2.956 12.27 5.912 13.991 6.207-.053-2.049-4.134-11.184-8.057-15.689l-.057-.067c-1.739-.203-7.171-.511-8.537 3.299a156.798 156.798 0 012.66 6.25zm-15.129.662c6.723 3.334 14.197 6.683 15.99 6.981-.035-1.719-2.765-8.674-5.49-14.624-.751-.595-2.319-1.583-4.504-1.632-2.709-.057-5.542 1.294-8.433 4.019a107.486 107.486 0 012.437 5.256z"/><path fill="#EFF1F1" fill-rule="evenodd" d="M275.152 310.788c-5.452 7.587-9.608 18.955-11.118 30.411-1.418 10.752-.282 19.665 3.032 24.167 2.137-4.152 4.713-6.484 7.668-6.934 3.105-.473 5.736 1.259 7.004 2.305-.127-3.058-.778-5.295-1.949-6.645-3.507-4.044-10.749-.461-10.822-.424 0 0 6.706-5.363 11.59-.193 1.39 1.602 2.122 4.237 2.195 7.813.12.233.266.519.431.847 3.018-2.771 6.021-4.143 8.934-4.067a8.533 8.533 0 014.75 1.585 17.5 17.5 0 00-2.308-5.559c-2.216-3.503-9.377-1.788-9.45-1.771 0 0 7.189-3.536 10.304 1.27 1.737 2.746 2.355 5.258 2.573 6.565l.016.036c1.957-3.422 7.039-3.273 9.008-3.074.066-1.392-.097-5.359-3.899-6.777l-.793-.295.403-.721c.125-.223 12.418-22.492 6.59-37.146-2.031-5.107-6.074-8.739-12.017-10.796-10.182-3.524-17.661 3.168-22.142 9.403zm30.878 7.603l1.507 3.574-2.555 3.743-1.14-4.393 2.188-2.924zm-4.936 4.631l.723 4.429-2.824 2.463-.906-4.268 3.007-2.624zm.841-4.006l-2.38-3.475 1.905-4.381 2.244 4.507-1.769 3.349z" class="Color_2"/><path fill="#4B4F53" fill-rule="evenodd" d="M299.163 326.034l.431 2.029 1.169-1.02-.343-2.106-1.257 1.097zm1.519-10.578l1.132 1.652.776-1.472-1.06-2.13-.848 1.95zm5.117 4.91l-.88 1.176.468 1.802 1.03-1.511-.618-1.467z" class="Color_1"/><path fill="rgb(185,185,185)" fill-rule="evenodd" d="M286.077 368.305c6.723 3.334 14.197 6.683 15.99 6.981-.024-1.155-1.265-4.676-2.903-8.667.009.029 1.328 4.154-.001 4.237-1.334.083-8.615-2.667-10.698-6.824-.353-.704-1.343-1.955-2.398-2.953a19.975 19.975 0 00-2.427 1.97 107.486 107.486 0 012.437 5.256zm15.129-.662c5.805 2.956 12.27 5.912 13.991 6.207-.019-.767-.603-2.525-1.531-4.661.126.883.079 1.712-.535 1.75-1.333.083-7.5-2.75-9.583-6.907-.537-1.072-2.552-3.413-4.024-4.195-.41.423-.753.929-.978 1.556a156.798 156.798 0 012.66 6.25zm-33.415-1.507c8 5.167 17.359 10.35 18.908 9.928.465-.677-.589-4.044-2.504-8.371.308 1.228.677 3.27-.254 3.328-1.334.083-8.615-2.667-10.699-6.824-.33-.66-1.221-1.801-2.2-2.763-1.168 1.125-2.255 2.694-3.251 4.702z"/><path fill="#c6cdcd" fill-rule="evenodd" d="M267.066 365.366c1.091-2.118 2.296-3.759 3.606-4.922-.519-1.464-1.374-2.984-1.954-3.932 2.957-2.591 8.725-3.034 11.958-1.004a6.023 6.023 0 00-.887-1.416c-3.507-4.044-10.749-.461-10.822-.424 0 0 6.706-5.363 11.59-.193 1.39 1.602 2.122 4.237 2.195 7.813.12.233.266.519.431.847a20.702 20.702 0 012.274-1.825c-.217-2.306-1.439-4.551-2.081-5.586 3.04-2.145 7.834-2.081 10.505-1.421-2.723-2.426-8.705-.996-8.772-.98 0 0 7.189-3.536 10.304 1.27.12.191.223.377.334.566a.302.302 0 00.021.018l.008.031c1.453 2.501 2.008 4.742 2.21 5.95l.016.036c.52-.91 1.264-1.562 2.109-2.033-.143-1.535-.693-4.241-2.774-5.437 3.121-2.102 6.952-.707 8.791.198-.576-1.048-1.506-2.015-3.017-2.579l-.793-.295.403-.721c.125-.223 12.418-22.492 6.59-37.146-2.031-5.107-6.074-8.739-12.017-10.796-10.182-3.524-17.661 3.168-22.142 9.403-5.452 7.587-9.608 18.955-11.118 30.411-1.418 10.752-.282 19.665 3.032 24.167zm9.474-52.041c6.167-13.305 33.591-14.372 32.841 9.373-.127 4.039-3.941 14.98-20.054 14.408-16.112-.572-15.673-17.554-12.787-23.781z" class="Shadow_2"/><path fill="rgb(0,0,0)" d="M249.563 364.507c-2.473-8.5-13.521-45.517-15.072-52.265-.619-3.044-.256-7.24 0-14.152.687-18.533 1.627-43.915-11.92-45.967-3.295-.46-5.902.369-7.748 2.467-5.598 6.361-2.334 23.004-.605 28.88 1.233 4.185 2.566 10.939 3.016 13.671q-2.234 15.057-7.315 63.689c-.657.18-2.087.243-3.285 1.506s-1.386 2.258-1.624 6.019c-2.401 3.391-2.572 11.542-1.17 13.727.162.253.55.676 1.325.673 3.276-1.05 5.706-2.303 8.487-4.812-.711 8.716-.054 9.182.311 9.441a.993.993 0 00.583.176c1.049-.005 13.462-7.976 14.708-8.72q.955 8.896 3.858 9.629c.3-.002 6.249-3.116 14.513-10.526.075-.055 4.41-4.936 1.938-13.436z"/><path fill="#4B4F53" fill-rule="evenodd" d="M221.049 270.924l-.208 1.24 2.023 1.683.261-2.332-1.868-1.83-.208 1.239zm3.445 12.188l1.508 1.893.821-2.386-1.723-1.95-.606 2.443zm3.521-8.642l-.41 2.489 1.649 1.779.627-2.448-1.866-1.82z" class="Color_1"/><path fill="#EFF1F1" fill-rule="evenodd" d="M226.398 287.168l-3.065-3.847 1.206-4.854 3.493 3.954-1.634 4.747zm.884-14.857l3.784 3.688-1.248 4.872-3.35-3.614.814-4.946zm-6.751-4.788l3.712 3.638-.531 4.736-4.023-3.348.842-5.026zm3.963 68.107l-1.63 4.683c1.899 1.852 2.946 3.451 3.138 3.639l1.28-4.639-2.788-3.683zm-4.695 11.046l3.392 3.172.9-4.666-3.042-3.006-1.25 4.5zm7.365.808l-.598 4.102 3.368 2.865.851-4.289-3.621-2.678zm-15.854 14.852q-4.011-.671-4.591 5.413 2.282-2.134 4.79-1.667 2.508.467 4.336 2.925 1.478-6.372 7.867-7.356c-4.189 1.438-5.643 3.297-6.478 7.287q4.262-2.4 7.26-2.097 2.998.303 6.102 3.685 1.19-6.776 7.607-7.405-5.695 1.02-6.676 8.182 3-3.661 8.731-1.589c5.73 2.071 6.874 5.414 6.881 5.421 3.554-4.008-.035-12.014-1.389-15.635-1.354-3.621-12.711-43.595-12.972-47.4-.26-3.806-.096-8.478.114-14.13.663-17.922 1.573-42.467-10.494-44.295-2.762-.385-4.841.257-6.345 1.967-5.125 5.824-1.849 22.179-.298 27.449 1.731 5.878 2.633 11.819 2.901 13.759.211 1.595-.357 20.382-7.346 65.486zm9.739-11.023l-1.02 4.312 3.089 2.883.781-4.057-2.85-3.138z" class="Color_2"/><path fill="rgb(255,255,255)" fill-rule="evenodd" d="M215.349 371c-.29-1.545-3.79-4.762-6.891-3.08-5.548 2.256-4.193 12.845-3.448 13.226.745.38 9.595-5.042 9.813-6.011.218-.968.579-3.71.526-4.135zm17.699 15.49c.626.459 13.098-8.757 13.212-9.745.115-.988-7.402-8.886-14.151-4.162-3.094 8.026.313 13.448.939 13.907zm-17.699-1.391c.536.588 11.546-6.051 12.51-7.156.964-1.104.823-1.854 1.607-5.36-1.16-2.099-6.518-6.182-11.815-2.057-2.25 1.406-2.838 13.985-2.302 14.573z"/><path fill="rgb(185,185,185)" fill-rule="evenodd" d="M206.434 378.557q-1.231-.255-1.972-3.998c-.563 2.109-.011 6.348.548 6.609.558.26 7.733-3.703 9.813-5.906.329-1.464.528-3.573.526-4.262q-7.685 7.813-8.915 7.557zm24.351 0c-.231 4.5 1.732 7.644 2.327 7.953.595.31 12.643-7.992 13.163-9.776q-.094-.735-1.837-2.35c-4.323 3.199-8.817 6.355-9.536 6.397-.718.042-2.991-1.069-4.117-2.224zm-15.233-1.388c-.236.704-.701 7.484-.203 7.93.498.446 11.939-5.965 12.918-7.623.44-.829 1.102-4.027 1.199-4.917q-8.824 7.882-10.81 8.007-1.987.125-3.104-3.397z"/><path fill="#c6cdcd" fill-rule="evenodd" d="M216.277 367.749q-.116.285-.432 1.258-2.137-2.572-4.535-2.925-2.399-.353-4.591 1.667-.136-6.311 4.591-5.413c-.113-.128 7.458-65.359 7.346-65.486-.268-1.94-1.17-7.881-2.901-13.759-1.551-5.27-4.827-21.625.298-27.449 1.504-1.71 3.583-2.352 6.345-1.967 12.067 1.828 11.157 26.373 10.494 44.295-.21 5.652-.394 10.69-.114 14.13-.284-.297 15.764 53.876 15.711 56.226q.66 4.811-1.35 6.809-3.565-5.033-8.522-5.631-4.957-.598-7.09 1.799 1.042-7.334 6.676-8.182c-2.916 1.213-4.753 4.725-3.967 5.234 1.86-.972 3.385-.881 5.16-.606 1.776.274 5.01 1.364 5.667 1.379.656.014-13.297-48.925-14.278-55.552-.98-6.626-.738-13.894.986-30.644 1.896-18.987-6.379-27.717-11.837-25.132-7.542 3.103-1.03 21.167-.202 23.628.827 2.462 3.028 9.523 2.666 17.603-.363 8.08-8.636 62.074-8.746 64.496q-4.061-.422-4.629 1.33 3.711-.701 5.523 1.225l1.731 1.667zm14.319 2.777q.146-.775.47-1.588c-6.468-5.047-10.898-2.27-11.377-2.097-.245-.153-.322-2.398 4.023-5.19q-5.62 1.251-6.478 7.287 3.268-1.606 6.099-1.637 2.831-.031 7.263 3.225z" class="Shadow_2"/><path fill="#4B4F53" fill-rule="evenodd" d="M221.484 353.008l-.625 2.39 1.852 1.688.445-2.344-1.672-1.734zm8.189-1.243l.208-1.239-2.022-1.683-.262 2.331 1.869 1.831.207-1.24zm-3.444-12.187l-1.509-1.893-.821 2.385 1.723 1.951.607-2.443zm-3.521 8.642l.41-2.489-1.649-1.779-.628 2.448 1.867 1.82z" class="Color_1"/><path fill="rgb(0,0,0)" d="M250.261 364.507c2.472-8.5 13.521-45.517 15.072-52.265.619-3.044.255-7.24 0-14.152-.687-18.533-1.627-43.915 11.92-45.967 3.295-.46 5.902.369 7.748 2.467 5.597 6.361 2.334 23.004.604 28.88-1.232 4.185-2.566 10.939-3.016 13.671q2.235 15.057 7.315 63.689c.658.18 2.087.243 3.286 1.506 1.198 1.263 1.386 2.258 1.624 6.019 2.4 3.391 2.572 11.542 1.17 13.727-.162.253-.55.676-1.325.673-3.276-1.05-5.706-2.303-8.487-4.812.71 8.716.053 9.182-.312 9.441a.987.987 0 01-.582.176c-1.049-.005-13.462-7.976-14.708-8.72q-.955 8.896-3.858 9.629c-.3-.002-6.249-3.116-14.513-10.526-.076-.055-4.41-4.936-1.938-13.436z"/><path fill="#4B4F53" fill-rule="evenodd" d="M278.774 270.924l.208 1.24-2.022 1.683-.261-2.332 1.868-1.83.207 1.239zm-3.444 12.188l-1.509 1.893-.821-2.386 1.724-1.95.606 2.443zm-3.521-8.642l.41 2.489-1.649 1.779-.627-2.448 1.866-1.82z" class="Color_1"/><path fill="#EFF1F1" fill-rule="evenodd" d="M273.426 287.168l3.064-3.847-1.205-4.854-3.493 3.954 1.634 4.747zm-.884-14.857l-3.785 3.688 1.249 4.872 3.35-3.614-.814-4.946zm6.751-4.788l-3.712 3.638.531 4.736 4.023-3.348-.842-5.026zm-3.963 68.107l1.63 4.683c-1.9 1.852-2.946 3.451-3.139 3.639l-1.279-4.639 2.788-3.683zm4.695 11.046l-3.393 3.172-.899-4.666 3.041-3.006 1.251 4.5zm-7.365.808l.597 4.102-3.368 2.865-.85-4.289 3.621-2.678zm15.854 14.852q4.011-.671 4.591 5.413-2.283-2.134-4.79-1.667-2.508.467-4.336 2.925-1.478-6.372-7.867-7.356c4.189 1.438 5.642 3.297 6.477 7.287q-4.261-2.4-7.259-2.097-2.998.303-6.103 3.685-1.19-6.776-7.606-7.405 5.695 1.02 6.676 8.182-3.001-3.661-8.731-1.589c-5.731 2.071-6.874 5.414-6.881 5.421-3.554-4.008.035-12.014 1.389-15.635 1.353-3.621 12.711-43.595 12.971-47.4.261-3.806.096-8.478-.113-14.13-.664-17.922-1.573-42.467 10.494-44.295 2.762-.385 4.84.257 6.345 1.967 5.125 5.824 1.849 22.179.297 27.449-1.73 5.878-2.632 11.819-2.9 13.759-.211 1.595.357 20.382 7.346 65.486zm-9.74-11.023l1.021 4.312-3.089 2.883-.782-4.057 2.85-3.138z" class="Color_2"/><path fill="rgb(255,255,255)" fill-rule="evenodd" d="M284.475 371c.289-1.545 3.79-4.762 6.89-3.08 5.549 2.256 4.194 12.845 3.449 13.226-.746.38-9.595-5.042-9.813-6.011-.218-.968-.58-3.71-.526-4.135zm-17.699 15.49c-.626.459-13.098-8.757-13.213-9.745-.114-.988 7.402-8.886 14.151-4.162 3.095 8.026-.312 13.448-.938 13.907zm17.699-1.391c-.536.588-11.547-6.051-12.51-7.156-.964-1.104-.824-1.854-1.607-5.36 1.159-2.099 6.518-6.182 11.815-2.057 2.25 1.406 2.838 13.985 2.302 14.573z"/><path fill="rgb(185,185,185)" fill-rule="evenodd" d="M293.39 378.557q1.231-.255 1.972-3.998c.562 2.109.01 6.348-.548 6.609-.559.26-7.733-3.703-9.813-5.906-.33-1.464-.528-3.573-.526-4.262q7.685 7.813 8.915 7.557zm-24.351 0c.231 4.5-1.732 7.644-2.327 7.953-.595.31-12.644-7.992-13.164-9.776q.095-.735 1.838-2.35c4.323 3.199 8.817 6.355 9.535 6.397.719.042 2.991-1.069 4.118-2.224zm15.233-1.388c.236.704.701 7.484.203 7.93-.499.446-11.94-5.965-12.919-7.623-.439-.829-1.102-4.027-1.198-4.917q8.823 7.882 10.81 8.007 1.986.125 3.104-3.397z"/><path fill="#c6cdcd" fill-rule="evenodd" d="M283.547 367.749q.115.285.432 1.258 2.136-2.572 4.535-2.925 2.398-.353 4.591 1.667.135-6.311-4.591-5.413c.113-.128-7.458-65.359-7.346-65.486.268-1.94 1.17-7.881 2.9-13.759 1.552-5.27 4.828-21.625-.297-27.449-1.505-1.71-3.583-2.352-6.345-1.967-12.067 1.828-11.158 26.373-10.494 44.295.209 5.652.394 10.69.113 14.13.285-.297-15.763 53.876-15.71 56.226q-.661 4.811 1.35 6.809 3.564-5.033 8.522-5.631 4.957-.598 7.09 1.799-1.043-7.334-6.676-8.182c2.916 1.213 4.753 4.725 3.966 5.234-1.859-.972-3.384-.881-5.16-.606-1.775.274-5.01 1.364-5.666 1.379-.656.014 13.297-48.925 14.278-55.552.98-6.626.738-13.894-.987-30.644-1.896-18.987 6.379-27.717 11.838-25.132 7.541 3.103 1.029 21.167.202 23.628-.828 2.462-3.029 9.523-2.666 17.603.362 8.08 8.635 62.074 8.746 64.496q4.06-.422 4.629 1.33-3.712-.701-5.523 1.225l-1.731 1.667zm-14.32 2.777q-.145-.775-.47-1.588c6.469-5.047 10.899-2.27 11.378-2.097.245-.153.322-2.398-4.023-5.19q5.62 1.251 6.477 7.287-3.268-1.606-6.099-1.637-2.831-.031-7.263 3.225z" class="Shadow_2"/><path fill="#4B4F53" fill-rule="evenodd" d="M278.339 353.008l.625 2.39-1.851 1.688-.446-2.344 1.672-1.734zm-8.189-1.243l-.207-1.239 2.022-1.683.261 2.331-1.868 1.831-.208-1.24zm3.445-12.187l1.508-1.893.821 2.385-1.723 1.951-.606-2.443zm3.521 8.642l-.41-2.489 1.649-1.779.627 2.448-1.866 1.82z" class="Color_1"/></g><g class="Head"><path fill="rgb(0,0,0)" d="M287.991 243.206c-.282-4.683-.978-7.091-1.591-9.216-.755-2.614-1.352-4.679-.91-10.179l.023-.284c.57-7.083 1.907-23.672-8.105-35.172-6.021-6.916-15.198-10.777-27.315-11.476h-.21c-12.084.696-21.265 4.556-27.289 11.474-10.014 11.5-8.677 28.09-8.107 35.174l.023.284c.442 5.5-.155 7.565-.91 10.179-.613 2.125-1.309 4.533-1.591 9.216-.165 2.742.569 5.001 2.181 6.713 3.239 3.44 9.081 3.577 10.782 3.537 2.028 2.995 7.641 4.273 8.995 4.543.528.666 2.232 2.792 5.035 6.054 2.331 2.712 5.934 3.282 8.546 3.282 1.055 0 1.846-.097 2.136-.138.305.04 1.167.138 2.317.138 2.818 0 6.666-.57 8.997-3.282 2.803-3.262 4.507-5.388 5.035-6.054 1.354-.27 6.967-1.549 8.995-4.543.12.003.262.005.423.005h.001c2.112 0 7.348-.346 10.358-3.542 1.612-1.712 2.346-3.971 2.181-6.713z"/><path fill="#4B4F53" fill-rule="evenodd" d="M232.954 226.335c1.169.372 2.092.665 2.708.997 2.43 1.308 2.448 3.824 2.467 6.488.009 1.291.018 2.625.286 3.936.624 3.06 8.195 6.04 11.248 6.994 3.242-.952 11.298-3.936 11.922-6.994.268-1.311.277-2.645.287-3.936.019-2.664.037-5.18 2.466-6.488.616-.332 1.539-.625 2.708-.997 5.112-1.624 14.525-4.624 17.057-17.116-.68-6.626-2.695-13.985-7.826-19.879-5.746-6.6-14.572-10.289-26.231-10.962h-.124c-11.618.67-20.448 4.358-26.197 10.96-5.133 5.895-7.148 13.254-7.828 19.881 2.532 12.492 11.945 15.492 17.057 17.116zm21.353 12.418l.011-.047.02-.091.003.003c.075-.299.197-.622.376-.945.538-.976 1.335-1.568 1.781-1.322.445.245.37 1.235-.168 2.211-.499.906-1.218 1.471-1.675 1.353.007.223.052.462.181.696 0 0-.825-.52-.529-1.858zm-10.804-2.402c.445-.246 1.242.346 1.78 1.322.179.323.301.646.376.945l.003-.003.02.091.011.047c.296 1.338-.529 1.858-.529 1.858.129-.234.174-.473.182-.696-.458.118-1.177-.447-1.676-1.353-.538-.976-.613-1.966-.167-2.211z" class="Color_1"/><path fill="#EFF1F1" fill-rule="evenodd" d="M284.959 234.406c-.766-2.652-1.428-4.942-.964-10.715l.022-.285c.212-2.619.529-6.577.317-11.079-3.405 10.64-12.092 13.406-16.985 14.962-1.119.355-2.003.636-2.537.923-1.908 1.028-1.922 3.052-1.94 5.615-.01 1.339-.02 2.723-.307 4.129-.869 4.257-11.552 7.447-12.768 7.797l-.143.041-.141-.044c-.457-.139-11.196-3.47-12.078-7.794-.287-1.406-.297-2.79-.306-4.129-.019-2.563-.033-4.587-1.941-5.615-.534-.287-1.418-.568-2.537-.923-4.893-1.556-13.58-4.322-16.984-14.962-.213 4.502.104 8.459.316 11.079l.022.285c.464 5.773-.198 8.063-.964 10.715-.591 2.05-1.262 4.373-1.535 8.891-.139 2.313.458 4.194 1.776 5.593 2.609 2.772 7.35 3.071 9.267 3.071.479 0 .768-.019.781-.02l.484-.034.23.427c1.345 2.505 6.568 3.911 8.467 4.241l.286.05.178.228c.017.023 1.781 2.285 5.164 6.222 1.96 2.281 5.111 2.76 7.409 2.76 1.18 0 1.999-.134 2.008-.136l.117-.019.12.017c.009.002.916.138 2.208.138 2.049 0 5.796-.359 7.86-2.76 3.383-3.937 5.147-6.199 5.164-6.222l.178-.228.285-.05c1.9-.332 7.126-1.741 8.468-4.241l.229-.427.484.034c.014.001.303.02.782.02h.001c1.917 0 6.657-.299 9.266-3.07 1.318-1.399 1.915-3.281 1.776-5.594-.273-4.518-.944-6.841-1.535-8.891zm-12.145 14.215c-.645.805-1.672 1.211-3.061 1.211a8.14 8.14 0 01-.573-.023c-.311.814-1.116 1.478-2.133 1.742-1.009.262-2.03.097-2.812-.439-.305.224-.62.436-.938.642-.615 2.049-1.699 2.491-2.512 2.491-.663 0-1.237-.298-1.544-.492-.763.271-1.551.499-2.352.679-.356.964-1.285 1.533-2.56 1.533-1.075 0-2.089-.407-2.598-1.015a17.922 17.922 0 01-1.717-.12l-.127.012c-.349.041-.915.09-1.618.108-.509.608-1.523 1.015-2.597 1.015-1.275 0-2.205-.569-2.561-1.533a20.409 20.409 0 01-2.352-.679c-.307.194-.881.492-1.544.492-.813 0-1.897-.442-2.512-2.491a19.865 19.865 0 01-.937-.641c-.609.422-1.332.593-2.116.49-1.106-.142-2.21-.836-2.812-1.768-.056-.086-.105-.176-.154-.265a8.63 8.63 0 01-.684.033c-1.392 0-2.402-.401-3.009-1.197-1.255-1.645-.2-4.293-.154-4.405a.5.5 0 01.926.376c-.009.022-.886 2.235.024 3.424.447.584 1.291.849 2.509.794-.99-3.641 2.123-8.684 2.272-8.921l.614-.98 3.016 11.493c.168.127.347.239.52.361.16-1.028.614-2.73 1.908-3.934l.603-.561 1.864 6.758c.603.215 1.226.396 1.858.552.055-2.181 2.028-4.737 2.122-4.857l.509-.652 2.745 6.094a17 17 0 001.454-.1l.25-.024.056.007c.345.045.892.097 1.587.117l2.744-6.094.51.652c.094.12 2.066 2.676 2.121 4.857a19.437 19.437 0 001.859-.552l1.863-6.758.603.561c1.3 1.209 1.752 2.922 1.91 3.948.188-.131.374-.265.555-.403l2.632-5.772.51.543c.243.258 2.046 2.229 2.288 3.881 1.321.094 2.252-.177 2.763-.813 1.013-1.262.205-3.62.197-3.643a.5.5 0 11.943-.332c.041.117 1.001 2.901-.358 4.598z" class="Color_2"/><path fill="rgb(255,255,255)" fill-rule="evenodd" d="M243.989 253.905c.213.957 1.248 1.06 1.683 1.06.764 0 1.438-.274 1.757-.575l-2.06-4.574c-.715 1.095-1.648 2.882-1.38 4.089zm-6.356-2.522c.352 1.236.884 1.862 1.582 1.862.344 0 .67-.141.888-.262l-1.371-4.974c-.941 1.334-1.08 3.019-1.099 3.374zm-5.955-2.09c.442.684 1.286 1.214 2.1 1.319.38.049.912.024 1.414-.319l-2.368-9.025c-.963 1.866-2.62 5.744-1.146 8.025zm20.893 5.097c.319.301.993.575 1.758.575.435 0 1.469-.103 1.682-1.06.269-1.21-.664-2.996-1.38-4.09l-2.06 4.575zm14.18-8.206l-1.89 4.143c.537.341 1.236.439 1.934.256.73-.189 1.294-.64 1.473-1.177.235-.705-.637-2.145-1.517-3.222zm-6.854 6.799c.217.121.544.262.888.262.698 0 1.23-.626 1.582-1.862-.019-.355-.158-2.04-1.098-3.373l-1.372 4.973z"/><path fill="#c6cdcd" fill-rule="evenodd" d="M286.494 243.297c-.273-4.518-.944-6.841-1.535-8.891-.766-2.652-1.428-4.942-.964-10.715l.022-.285c.212-2.619.529-6.577.317-11.079-1.374 4.293-3.608 7.302-6.105 9.47-.431 2.346-.77 5.13-.466 7.142.63 4.167 12.026 15.855-4.005 20.511-2.531 2.822-5.106 3.656-8.735 4.322-4.796 5.5-5.925 9.543-9.18 6.667-1.95-1.723-4.382-2.614-5.832 1.526l-.011.03-.011-.03c-1.45-4.14-3.882-3.249-5.832-1.526-3.255 2.876-4.383-1.167-9.18-6.667-3.629-.666-6.203-1.5-8.735-4.322-16.031-4.656-4.635-16.344-4.005-20.511.304-2.012-.035-4.796-.466-7.142-2.497-2.168-4.731-5.177-6.104-9.47-.213 4.502.104 8.459.316 11.079l.022.285c.464 5.773-.198 8.063-.964 10.715-.591 2.05-1.262 4.373-1.535 8.891-.139 2.313.458 4.194 1.776 5.593 2.609 2.772 7.35 3.071 9.267 3.071.479 0 .768-.019.781-.02l.484-.034.23.427c1.345 2.505 6.568 3.911 8.467 4.241l.286.05.178.228c.017.023 1.781 2.285 5.164 6.222 1.96 2.281 5.111 2.76 7.409 2.76 1.18 0 1.999-.134 2.008-.136l.117-.019.12.017c.009.002.916.138 2.208.138 2.049 0 5.796-.359 7.86-2.76 3.383-3.937 5.147-6.199 5.164-6.222l.178-.228.285-.05c1.9-.332 7.126-1.741 8.468-4.241l.229-.427.484.034c.014.001.303.02.782.02h.001c1.917 0 6.657-.299 9.266-3.07 1.318-1.399 1.915-3.281 1.776-5.594zm-14.265 1.058a.5.5 0 11.943-.332c.023.067.346 1.005.365 2.114.889-.562 3.954-2.826.856-5.703-3.497-3.249-3.301 3.065-2.039 4.368-.065-.269-.123-.441-.125-.447zm-45.841 1.733a7.068 7.068 0 01.449-2.087.5.5 0 01.926.376c-.002.006-.072.183-.151.456 1.293-1.225 1.523-7.676-2.005-4.399-3.014 2.799-.193 5.019.781 5.654z" class="Shadow_2"/><path fill="rgb(49, 52, 54)" fill-rule="evenodd" d="M249.922 178.378c-11.618.67-20.448 4.358-26.197 10.96-5.133 5.895-7.148 13.254-7.828 19.881 2.532 12.492 11.945 15.492 17.057 17.116 1.169.372 2.092.665 2.708.997 2.43 1.308 2.448 3.824 2.467 6.488.009 1.291.018 2.625.286 3.936.016.081.04.163.067.244.179.367.382.728.616 1.081 2.054 2.56 7.957 4.854 10.565 5.669 2.821-.828 9.283-3.195 11.327-5.81.195-.306.371-.618.526-.935.028-.083.052-.166.069-.249.268-1.311.277-2.645.287-3.936.019-2.664.037-5.18 2.466-6.488.616-.332 1.539-.625 2.708-.997 5.112-1.624 14.525-4.624 17.057-17.116-.68-6.626-2.695-13.985-7.826-19.879-5.746-6.6-14.572-10.289-26.231-10.962h-.124zm-4.758 62.233c.129-.234.174-.473.182-.696-.458.118-1.177-.447-1.676-1.353-.538-.976-.613-1.966-.167-2.211.445-.246 1.242.346 1.78 1.322.179.323.301.646.376.945l.003-.003.02.091.011.047c.296 1.338-.529 1.858-.529 1.858zm11.166-2.049c-.499.906-1.218 1.471-1.675 1.353.007.223.052.462.181.696 0 0-.825-.52-.529-1.858l.011-.047.02-.091.003.003c.075-.299.197-.622.376-.945.538-.976 1.335-1.568 1.781-1.322.445.245.37 1.235-.168 2.211zm15.858-41.79c7.574 17.767-8.711 22.167-14.904 26.667s2.359 6.167 1.359 9.083c-1 2.917-5.333 3.834-8.5 3.793-.05-.001-.095.005-.143.008-.048-.003-.093-.009-.143-.008-3.167.041-7.5-.876-8.5-3.793-1-2.916 7.552-4.583 1.359-9.083-6.192-4.5-22.478-8.9-14.904-26.667 4.964-11.643 17.715-14.448 22.188-14.688 4.473.24 17.224 3.045 22.188 14.688z" class="Shadow_1"/><path fill="rgb(0,0,0)" fill-rule="evenodd" d="M208.313 142.848l-6.217 2.715 6.353 5.446.005-.005c.485 4.394 1.557 8.781 2.899 12.791l-2.405 7.144h5.235c1.332 2.881 2.71 5.311 3.935 7.041.042.063 4.208 6.348 5.906 11.927 1.124 3.693 4.331 12.515 9.822 14.676a6.934 6.934 0 002.563.495c1.375 0 2.783-.414 4.209-1.24l.386-.224-.012-.445c-.014-.507-.373-11.064-6.298-21.423l2.865-6.911-6.935.927c-6.554-9.07-12.819-21.89-12.687-31.082a28.107 28.107 0 005.19 2.122l4.296 7.218 3.945-6.505c3.805-.697 6.491-3.019 7.578-6.578.166-.543.284-1.105.367-1.677l5.263-3.16-6.251-4.208c-.798-1.975-1.997-3.802-3.541-5.235-3.429-3.182-7.909-4.077-12.721-2.587l-6.134-4.252v7.413a17.63 17.63 0 00-3.038 2.986c-3.197-2.583-1.68-9.905-.241-12.544 1.573-2.883.51-5.844.356-6.239l6.389-9.594-12.198 6.232c-3.816.159-5.048 4.946-5.788 7.828l-.105.406c-.574 2.207-.657 4.579-.262 7.091l-4.121 6.576 6.489.823.041.092c.799 1.974 2.928 4.728 5.632 7.311a29.928 29.928 0 00-.77 4.649zm12.407-6.205c.132-.139.267-.274.408-.405 3.578-3.333 5.979-1.713 6.63-1.138 1.023.905 1.427 2.304.882 3.055-.702.967-3.19 1.106-7.92-1.512z"/><path fill="#8f8f8f" fill-rule="evenodd" d="M204.825 130.286c.553 1.364 2.062 3.636 4.729 6.28.616-1.901 1.436-3.613 2.454-5.133-4.158-3.238-2.228-11.631-.674-14.478.823-1.511.723-3.08.532-4.047-.708.734-1.753 1.529-2.96 1.529-.748 0-1.44-.301-2.059-.895-1.203-1.155-1.551-2.185-1.555-2.991-1.316 1.395-1.98 3.968-2.43 5.722l-.106.411c-1.027 3.947-.33 8.523 2.069 13.602zm6.002 7.211c-3.746 12.471 2.664 31.351 8.527 39.634.188.281 4.344 6.55 6.105 12.34 1.061 3.484 4.054 11.795 8.937 13.716 1.624.64 3.288.5 5.072-.428-.16-2.47-1.321-14.592-8.948-24.616-9.073-11.925-19.924-34.144-10.414-43.003 3.577-3.332 6.812-2.786 8.646-1.163 1.63 1.441 2.114 3.663 1.102 5.058-.703.969-3.075 2.74-10.077-1.201-.973 1.467-1.53 3.227-1.742 5.194 4.436 2.459 8.853 3.516 12.815 3.06 3.345-.524 5.721-2.51 6.661-5.589 1.277-4.184-.298-9.542-3.747-12.742-2.061-1.912-4.567-2.884-7.315-2.884-1.616 0-3.317.336-5.06 1.015-5.316 2.069-8.869 5.975-10.562 11.609-3.746 12.471 1.693-5.634 0 0z" class="Mod_1"/><path fill="rgb(202,194,194)" fill-rule="evenodd" d="M235.175 176.667l-3.533.473.072.095c.73.959 1.397 1.934 2.017 2.916l1.444-3.484zm6.608-40.639l-2.725-1.835c.25 1.077.379 2.168.381 3.242l2.344-1.407zm-12.27 11.654a19.908 19.908 0 01-4.344-.383l2.267 3.809 2.077-3.426zm-21.627-35.222c.334.321.668.477 1.02.477 1.108 0 2.318-1.508 2.654-2.037l3.404-5.112-8.014 4.094c-.169.264-.54 1.16.936 2.578zm12.455 12.241l-2.912-2.018v3.514a20.39 20.39 0 012.912-1.496z"/><path fill="#696969" fill-rule="evenodd" d="M206.048 115.465a5.209 5.209 0 003.026.652c1.949-.177 2.608-2.239 2.789-3.206-.708.733-1.752 1.526-2.957 1.526-.748 0-1.44-.301-2.059-.895a7.306 7.306 0 01-.371-.385c-.035-.038-.067-.076-.1-.114a5.626 5.626 0 01-.221-.272c-.029-.038-.06-.076-.087-.113a5.346 5.346 0 01-.238-.353c-.398-.657-.535-1.249-.538-1.754-1.316 1.395-1.98 3.968-2.43 5.722l-.106.411c-1.027 3.947-.33 8.523 2.069 13.602.553 1.364 2.062 3.636 4.729 6.28.132-.406.277-.798.427-1.187-6.97-9.008-5.635-16.127-3.933-19.914zm29.059 70.392c4.436 13.972-1.845 11.858-3.072 10.249-.756-.994-2.184-3.985-3.277-6.388a19.754 19.754 0 00-.625-1.654c-.152-.351-.448-.922-.845-1.658a.049.049 0 00-.003-.007c-3.26-6.052-13.742-23.958-15.25-35.293-.765-5.756-.25-10.307.847-13.874 3.14-7.704 9.076-11.547 14.646-10.965 5.583.583 9.424 7.922 8.322 12.005-1.101 4.084-5.065 6.584-9.6 6.241-3.516-.265-6.709-2.162-7.971-3.004-.106.491-.188.997-.244 1.519 4.436 2.459 8.853 3.516 12.815 3.06 3.345-.524 5.721-2.51 6.661-5.589 1.277-4.184-.298-9.542-3.747-12.742-2.061-1.912-4.567-2.884-7.315-2.884-1.616 0-3.317.336-5.06 1.015-2.733 1.064-5.222 2.75-7.104 5.01l-.001.001c-1.529 1.836-2.687 4.036-3.457 6.598-3.746 12.471 2.664 31.351 8.527 39.634.167.249 3.45 5.204 5.421 10.358.249.653.481 1.313.684 1.982 1.061 3.484 4.054 11.795 8.937 13.716.167.066.334.119.502.167.077.023.153.043.23.062.064.016.129.028.193.041 1.332.28 2.7.055 4.147-.698-.12-1.853-.804-9.143-4.361-16.902 4.436 13.972 3.557 7.759 0 0zm-15.33-48.023a9.79 9.79 0 00-.966 1.888c3.873 3.546 11.44 1.763 12.474-.783 1.084-2.667-.583-6.417-5.368-6.917-4.786-.5-8.965 3-9.513 10.173a19.556 19.556 0 00.017 3.023c-.046-4.062 1.019-7.595 3.685-10.078 3.577-3.332 6.812-2.786 8.646-1.163 1.63 1.441 2.114 3.663 1.102 5.058-.703.969-3.075 2.74-10.077-1.201z" class="Shadow_4"/><path fill="rgb(255,255,255)" fill-rule="evenodd" d="M207.886 112.46c.178.171.357.292.537.371.18-1.995 4.125-5.197 6.466-6.931l.075-.112-8.014 4.094c-.169.264-.54 1.16.936 2.578zm3.15 56.979h2.474a70.637 70.637 0 01-1.346-3.352l-1.128 3.352zm-11.598-40.659l3.271.415a28.299 28.299 0 01-1.226-3.677l-2.045 3.262zm8.769 15.751l-3.319 1.45 3.379 2.896a41.021 41.021 0 01-.06-4.346zm9.222-18.334c.488-.304.998-.585 1.524-.851l-1.524-2.32v3.171zm24.264 9.771l-2.393-.435c.088.635.138 1.272.139 1.902l2.344-1.407-.09-.06zm-9.318 42.164l-.007.006a42.42 42.42 0 011.363 2.013l1.444-3.484-.569.077-2.231 1.388zm-4.939-27.024l.016-.027v-3.463a21.079 21.079 0 01-2.283-.319l2.267 3.809z"/><path fill="rgb(0,0,0)" fill-rule="evenodd" d="M290.917 138.199c2.704-2.583 4.833-5.337 5.632-7.311l.041-.092 6.489-.823-4.121-6.576c.395-2.512.312-4.884-.262-7.091l-.105-.406c-.74-2.882-1.972-7.669-5.788-7.828l-12.198-6.232 6.389 9.594c-.154.395-1.217 3.356.356 6.239 1.439 2.639 2.956 9.961-.241 12.544a17.63 17.63 0 00-3.038-2.986v-7.413l-6.134 4.252c-4.812-1.49-9.292-.595-12.721 2.587-1.544 1.433-2.743 3.26-3.541 5.235l-6.251 4.208 5.263 3.16c.083.572.201 1.134.367 1.677 1.087 3.559 3.773 5.881 7.578 6.578l3.945 6.505 4.296-7.218a28.107 28.107 0 005.19-2.122c.132 9.192-6.133 22.012-12.687 31.082l-6.935-.927 2.865 6.911c-5.925 10.359-6.284 20.916-6.298 21.423l-.012.445.386.224c1.426.826 2.834 1.24 4.209 1.24.868 0 1.724-.164 2.563-.495 5.491-2.161 8.698-10.983 9.822-14.676 1.698-5.579 5.864-11.864 5.906-11.927 1.225-1.73 2.603-4.16 3.935-7.041h5.235l-2.405-7.144c1.342-4.01 2.414-8.397 2.899-12.791l.005.005 6.353-5.446-6.217-2.715a29.928 29.928 0 00-.77-4.649zm-19.557-.044c-.545-.751-.141-2.15.882-3.055.651-.575 3.052-2.195 6.63 1.138.141.131.276.266.408.405-4.73 2.618-7.218 2.479-7.92 1.512z"/><path fill="#8f8f8f" fill-rule="evenodd" d="M297.244 116.684l-.106-.411c-.45-1.754-1.114-4.327-2.43-5.722-.004.806-.352 1.836-1.555 2.991-.619.594-1.311.895-2.059.895-1.207 0-2.252-.795-2.96-1.529-.191.967-.291 2.536.533 4.047 1.553 2.847 3.483 11.24-.675 14.478 1.018 1.52 1.838 3.232 2.454 5.133 2.667-2.644 4.176-4.916 4.729-6.28 2.399-5.079 3.096-9.655 2.069-13.602zm-8.071 20.813c-1.693-5.634-5.246-9.54-10.562-11.609-1.743-.679-3.444-1.015-5.06-1.015-2.748 0-5.254.972-7.315 2.884-3.449 3.2-5.024 8.558-3.747 12.742.94 3.079 3.316 5.065 6.661 5.589 3.962.456 8.379-.601 12.815-3.06-.212-1.967-.769-3.727-1.742-5.194-7.002 3.941-9.374 2.17-10.077 1.201-1.012-1.395-.528-3.617 1.102-5.058 1.834-1.623 5.069-2.169 8.646 1.163 9.51 8.859-1.341 31.078-10.414 43.003-7.627 10.024-8.788 22.146-8.948 24.616 1.784.928 3.448 1.068 5.072.428 4.883-1.921 7.876-10.232 8.937-13.716 1.762-5.79 5.917-12.059 6.105-12.34 5.863-8.283 12.273-27.163 8.527-39.634-1.693-5.634 3.746 12.471 0 0z" class="Mod_1"/><path fill="rgb(202,194,194)" fill-rule="evenodd" d="M266.269 180.151a40.483 40.483 0 012.017-2.916l.072-.095-3.533-.473 1.444 3.484zm-5.708-42.716c.002-1.074.131-2.165.381-3.242l-2.725 1.835 2.344 1.407zm12.003 13.673l2.267-3.809c-1.476.289-2.93.42-4.344.383l2.077 3.426zm20.486-41.226l-8.014-4.094 3.404 5.112c.336.529 1.546 2.037 2.654 2.037.352 0 .686-.156 1.02-.477 1.476-1.418 1.105-2.314.936-2.578zm-10.479 16.315v-3.514l-2.912 2.018a20.39 20.39 0 012.912 1.496z"/><path fill="#696969" fill-rule="evenodd" d="M290.019 135.379c.15.389.295.781.427 1.187 2.667-2.644 4.176-4.916 4.729-6.28 2.399-5.079 3.096-9.655 2.069-13.602l-.106-.411c-.45-1.754-1.114-4.327-2.43-5.722-.003.505-.14 1.097-.538 1.754-.07.115-.151.233-.238.353-.027.037-.058.075-.087.113-.068.09-.142.18-.221.272-.033.038-.065.076-.1.114a7.306 7.306 0 01-.371.385c-.619.594-1.311.895-2.059.895-1.205 0-2.249-.793-2.957-1.526.181.967.84 3.029 2.789 3.206a5.209 5.209 0 003.026-.652c1.702 3.787 3.037 10.906-3.933 19.914zm-25.126 50.478c-3.557 7.759-4.241 15.049-4.361 16.902 1.447.753 2.815.978 4.147.698.064-.013.129-.025.193-.041.077-.019.153-.039.23-.062.168-.048.335-.101.502-.167 4.883-1.921 7.876-10.232 8.937-13.716.203-.669.435-1.329.684-1.982 1.971-5.154 5.254-10.109 5.421-10.358 5.863-8.283 12.273-27.163 8.527-39.634-.77-2.562-1.928-4.762-3.457-6.598l-.001-.001c-1.882-2.26-4.371-3.946-7.104-5.01-1.743-.679-3.444-1.015-5.06-1.015-2.748 0-5.254.972-7.315 2.884-3.449 3.2-5.024 8.558-3.747 12.742.94 3.079 3.316 5.065 6.661 5.589 3.962.456 8.379-.601 12.815-3.06a14.543 14.543 0 00-.244-1.519c-1.262.842-4.455 2.739-7.971 3.004-4.535.343-8.499-2.157-9.6-6.241-1.102-4.083 2.739-11.422 8.322-12.005 5.57-.582 11.506 3.261 14.646 10.965 1.097 3.567 1.613 8.118.847 13.874-1.508 11.335-11.99 29.241-15.25 35.293l-.003.007c-.397.736-.693 1.307-.845 1.658a19.754 19.754 0 00-.625 1.654c-1.093 2.403-2.521 5.394-3.277 6.388-1.227 1.609-7.508 3.723-3.072-10.249-3.557 7.759-4.436 13.972 0 0zm5.253-46.822c-1.012-1.395-.528-3.617 1.102-5.058 1.834-1.623 5.069-2.169 8.646 1.163 2.666 2.483 3.731 6.016 3.685 10.078.079-1.003.094-2.018.017-3.023-.548-7.173-4.727-10.673-9.513-10.173-4.785.5-6.452 4.25-5.368 6.917 1.034 2.546 8.601 4.329 12.474.783a9.79 9.79 0 00-.966-1.888c-7.002 3.941-9.374 2.17-10.077 1.201z" class="Shadow_4"/><path fill="rgb(255,255,255)" fill-rule="evenodd" d="M293.05 109.882l-8.014-4.094.075.112c2.341 1.734 6.286 4.936 6.466 6.931.18-.079.359-.2.537-.371 1.476-1.418 1.105-2.314.936-2.578zm-5.214 56.205a70.637 70.637 0 01-1.346 3.352h2.474l-1.128-3.352zm10.681-40.569a28.299 28.299 0 01-1.226 3.677l3.271-.415-2.045-3.262zm-6.784 23.359l3.379-2.896-3.319-1.45a41.021 41.021 0 01-.06 4.346zm-9.162-25.851l-1.524 2.32c.526.266 1.036.547 1.524.851v-3.171zm-24.354 13.002l2.344 1.407c.001-.63.051-1.267.139-1.902l-2.393.435-.09.06zm7.177 40.716l-.569-.077 1.444 3.484a42.42 42.42 0 011.363-2.013l-.007-.006-2.231-1.388zm9.437-29.445c-.768.15-1.53.256-2.283.319v3.463l.016.027 2.267-3.809z"/><path fill="rgb(0,0,0)" d="M242.104 232.758c-.458.402-1.924 1.052-2.455 1.342a21.732 21.732 0 01-3.515 1.666 17.34 17.34 0 01-7.284.994l-.082-.006a20.863 20.863 0 01-4.316-.799 32.42 32.42 0 01-4.553-1.704 21.427 21.427 0 01-3.318-1.904 30.3 30.3 0 01-3.22-2.57 35.423 35.423 0 01-5.622-6.651 32.746 32.746 0 01-3.875-7.971 22.639 22.639 0 01-1.102-8.475l.005-.059.004-.047c.002-.036.005-.071-.005-.095a13.416 13.416 0 01-.53-4.728 13.14 13.14 0 011.498-5.101 31.717 31.717 0 006.093 6.995 26.849 26.849 0 005.076 3.343 34.002 34.002 0 005.604 2.188c2.071.6 4.172 1.119 6.293 1.545a16.08 16.08 0 014.216 1.772 21.372 21.372 0 013.549 2.739c2.089 2.044 10.132 9.798 7.539 17.526z"/><path fill="rgb(0,0,0)" d="M239.123 231.001a11.232 11.232 0 01-5.193 2.797 16.057 16.057 0 01-5.122.424c-1.12-.088-2.217-.3-3.293-.624a11.704 11.704 0 01-2.983-1.36 9.96 9.96 0 01-2.695-2.615 14.773 14.773 0 01-1.76-3.239 18.199 18.199 0 01-.955-3.328 11.55 11.55 0 01-.187-2.964 5.87 5.87 0 01.531-2.098 29.137 29.137 0 0114.23 4.681 24.057 24.057 0 014.449 3.663 16.197 16.197 0 011.56 1.907 10.56 10.56 0 011.418 2.756z"/><path fill="rgb(255,255,255)" d="M225.636 221.585c-.037.227-1.242-.403-1.489-.803-.319-.057-.379-.125-.706-.195-2.374-.257-3.812-.636-5.114-1.268-.692 2.595.869 9.282 4.895 11.865s10.799 2.434 14.405-.547c-.374-.243-.96-.778-1.496-1.906-.615-.075-3.737-2.838-4.125-4.294-.369-.291-.921-.573-1.287-.819-.042 1.834-1.737 5.475-3.304 7.255q-2.66-4.772-1.779-9.288z"/><path fill="rgb(210,210,210)" d="M236.956 230.037c-3.551.941-6.728 1.23-9.427.692-.038-.007-.077.098-.114.144-.018-.042-.076-.183-.114-.191-4.61-1.009-7.784-4.496-8.974-11.363-.692 2.595.869 9.282 4.895 11.865s10.799 2.434 14.405-.547c-.233-.19-.348-.266-.671-.6z"/><path fill="#d5c6b5" d="M206.664 211.112c-2.497-3.163-4.054-7.305-2.653-11.82 1.945 2.822 4.795 5.041 7.054 6.929-1.788.487-3.919 3.077-4.401 4.891z" class="Mod_2"/><path fill="#4B4F53" d="M214.825 217.101c-2.313-.56-5.423-2.402-6.988-4.643-.187-1.766 2.389-5.331 4.28-5.65 1.742 1.152 3.691 2.162 5.711 2.849-1.347 1.784-2.969 4.723-3.003 7.444zM240.565 225.424c-.766 1.99-1.604 2.184-2.923 2.734.002.783.825 2.083 2.463 3.164.206.117.662.391 1.165.67.55.305.224-4.865-.705-6.568z" class="Color_1"/><path fill="rgb(49, 52, 54)" d="M240.565 225.424c-.409 1.063-.838 1.613-1.351 1.979-.447.32 1.553 4.31 2.056 4.589.55.305.224-4.865-.705-6.568z" class="Shadow_1"/><path fill="#d5c6b5" d="M240.135 224.54c-1.132-1.911-2.445-4.313-4.095-5.699-.424 1.142-1.27 3.081-3.155 4.57.809 1.575 1.527 2.605 4.175 4.034.815-.181 2.552-1.054 3.075-2.905zM223.713 219.028c1.057-3.4 2.454-5.751 3.863-6.756-2.771-.72-5.165-1.153-8.593-2.199-1.069 1.405-3.174 5.41-2.638 7.146-.022.609 7.371 2.478 7.368 1.809z" class="Mod_2"/><path fill="#4B4F53" d="M232.361 223.024c1.241-.882 2.781-3.415 3.002-5.131-1.663-1.954-5.101-4.838-6.151-4.886-2.09.668-3.98 4.456-4.48 6.395.702.825 5.648 3.229 7.629 3.622zM238.729 231.368a15.095 15.095 0 01-3.652 2.098c.434.389.654.77.626 1.103 1.164-.378 2.736-1.167 4.363-2.215-.663-.399-1.097-.714-1.337-.986z" class="Color_1"/><path fill="#d5c6b5" d="M228.574 234.171c.222.365.2.806-.1 1.281 2.077.257 4.384-.009 5.919-.442.084-.433.03-.847-.196-1.281-2.269.545-4.459.562-5.623.442z" class="Mod_2"/><path fill="#4B4F53" d="M227.313 233.983q-3.994-.648-7.28-4.099c-.663.729-.517 1.997-.331 2.906a25.438 25.438 0 007.591 2.522q.313-.901.02-1.329z" class="Color_1"/><path fill="#d5c6b5" d="M219.441 228.913c-1.168-1.253-1.934-4.872-2.574-7.575-1.223 1.773-1.573 4.448-2.127 7.954 1.051 1.037 2.426 2.045 4.045 2.94-.085-1.517.385-2.415.656-3.319z" class="Mod_2"/><path fill="#4B4F53" d="M217.206 218.911c-1.175-1.043-3.406-.594-5.578-1.658-1.886.792-2.936 3.217-3.368 4.325.752 1.453 3.87 5.598 5.522 6.837.805-4.592 1.635-6.469 3.424-9.504z" class="Color_1"/><path fill="#d5c6b5" d="M210.751 216.709c-1.492-.749-5.304-4.903-6.664-6.69.354 3.597 1.685 7.255 3.604 10.603.254-1.412 1.281-2.786 3.06-3.913z" class="Mod_2"/><path fill="rgb(190, 169, 145)" d="M209.025 207.494c-1.705-1.179-5.183-3.765-5.014-8.202 1.945 2.822 4.795 5.041 7.054 6.929-.667.182-1.381.656-2.04 1.273z" class="Shadow_5"/><path fill="rgb(49, 52, 54)" d="M216.027 212.611c-3.378-.837-5.372-2.654-6.38-4.079.776-.895 1.682-1.591 2.47-1.724 1.742 1.152 3.691 2.162 5.711 2.849a17.817 17.817 0 00-1.801 2.954z" class="Shadow_1"/><path fill="rgb(190, 169, 145)" d="M239.019 226.351c.478-.451.9-1.048 1.116-1.811-1.132-1.911-2.445-4.313-4.095-5.699-.259.697-.675 1.692-1.39 2.701-.455.642 3.687 5.451 4.369 4.809zM225.206 215.31c.743-1.425 1.555-2.457 2.37-3.038-2.771-.72-5.165-1.153-8.593-2.199-.46.605-1.113 1.692-1.664 2.872.774 1.301 6.12 2.757 7.887 2.365z" class="Shadow_5"/><path fill="rgb(49, 52, 54)" d="M234.124 220.97c.625-1.008 1.121-2.159 1.239-3.077-1.663-1.954-5.101-4.838-6.151-4.886-1.078.345-2.102 1.519-2.91 2.841.318 1.674 6.484 5.538 7.822 5.122zM238.729 231.368a15.095 15.095 0 01-3.652 2.098c.434.389.654.77.626 1.103 1.164-.378 2.736-1.167 4.363-2.215-.663-.399-1.097-.714-1.337-.986z" class="Shadow_1"/><path fill="rgb(190, 169, 145)" d="M228.574 234.171c.222.365.2.806-.1 1.281 2.077.257 4.384-.009 5.919-.442.084-.433.03-.847-.196-1.281-2.269.545-4.459.562-5.623.442z" class="Shadow_5"/><path fill="rgb(49, 52, 54)" d="M227.313 233.983q-3.994-.648-7.28-4.099c-.4.441-.505 1.077-.485 1.712.013.417 5.058 3.277 7.745 3.716q.313-.901.02-1.329z" class="Shadow_1"/><path fill="rgb(190, 169, 145)" d="M218.795 231.39c.085-1.035.429-1.754.646-2.477-1.168-1.253-1.934-4.872-2.574-7.575-.559.811-.936 1.811-1.233 2.992-.968 1.371 2.536 7.302 3.161 7.06z" class="Shadow_5"/><path fill="rgb(49, 52, 54)" d="M215.231 222.812c.442-1.356 1.413-2.948 1.975-3.901-1.175-1.043-3.406-.594-5.578-1.658-.834.35-1.505 1.02-2.031 1.754 2.886 1.744 4.219 2.53 5.634 3.805z" class="Shadow_1"/><path fill="rgb(190, 169, 145)" d="M208.649 218.559c.511-.661 1.212-1.286 2.102-1.85-1.492-.749-5.304-4.903-6.664-6.69.354 3.597 3.231 7.718 4.562 8.54z" class="Shadow_5"/><path fill="rgb(0,0,0)" d="M258.01 232.758c.457.402 1.923 1.052 2.455 1.342a21.722 21.722 0 003.514 1.666 17.34 17.34 0 007.284.994l.082-.006a20.85 20.85 0 004.316-.799 32.373 32.373 0 004.553-1.704 21.437 21.437 0 003.319-1.904 30.289 30.289 0 003.219-2.57 35.428 35.428 0 005.623-6.651 32.743 32.743 0 003.874-7.971 22.639 22.639 0 001.102-8.475l-.005-.059-.003-.047c-.003-.036-.006-.071.004-.095.461-1.527.632-3.126.531-4.728a13.158 13.158 0 00-1.499-5.101 31.686 31.686 0 01-6.092 6.995 26.88 26.88 0 01-5.076 3.343 34.072 34.072 0 01-5.604 2.188 77.607 77.607 0 01-6.293 1.545 16.072 16.072 0 00-4.217 1.772 21.372 21.372 0 00-3.549 2.739c-2.089 2.044-10.132 9.798-7.538 17.526z"/><path fill="rgb(0,0,0)" d="M260.991 231.001a11.227 11.227 0 005.193 2.797c1.665.415 3.398.558 5.122.424 1.119-.088 2.217-.3 3.293-.624a11.682 11.682 0 002.982-1.36 9.945 9.945 0 002.695-2.615 14.773 14.773 0 001.76-3.239c.423-1.071.741-2.184.956-3.328.189-.977.251-1.969.186-2.964a5.829 5.829 0 00-.531-2.098 29.137 29.137 0 00-14.23 4.681 24.017 24.017 0 00-4.448 3.663 16 16 0 00-1.56 1.907 10.56 10.56 0 00-1.418 2.756z"/><path fill="rgb(255,255,255)" d="M274.477 221.585c.037.227 1.243-.403 1.489-.803.32-.057.379-.125.706-.195 2.374-.257 3.813-.636 5.115-1.268.691 2.595-.87 9.282-4.896 11.865-4.025 2.583-10.799 2.434-14.405-.547.375-.243.96-.778 1.496-1.906.615-.075 3.738-2.838 4.125-4.294.37-.291.921-.573 1.287-.819.043 1.834 1.738 5.475 3.305 7.255q2.66-4.772 1.778-9.288z"/><path fill="rgb(210,210,210)" d="M263.157 230.037c3.551.941 6.729 1.23 9.428.692.038-.007.077.098.114.144.018-.042.076-.183.114-.191 4.61-1.009 7.783-4.496 8.974-11.363.691 2.595-.87 9.282-4.896 11.865-4.025 2.583-10.799 2.434-14.405-.547.233-.19.349-.266.671-.6z"/><path fill="#d5c6b5" d="M293.449 211.112c2.497-3.163 4.054-7.305 2.654-11.82-1.946 2.822-4.796 5.041-7.055 6.929 1.789.487 3.919 3.077 4.401 4.891z" class="Mod_2"/><path fill="#4B4F53" d="M285.289 217.101c2.312-.56 5.423-2.402 6.988-4.643.186-1.766-2.39-5.331-4.281-5.65-1.742 1.152-3.69 2.162-5.711 2.849 1.348 1.784 2.97 4.723 3.004 7.444zM259.548 225.424c.766 1.99 1.605 2.184 2.923 2.734-.001.783-.825 2.083-2.463 3.164-.205.117-.662.391-1.164.67-.55.305-.224-4.865.704-6.568z" class="Color_1"/><path fill="rgb(49, 52, 54)" d="M259.548 225.424c.409 1.063.839 1.613 1.351 1.979.447.32-1.553 4.31-2.055 4.589-.55.305-.224-4.865.704-6.568z" class="Shadow_1"/><path fill="#d5c6b5" d="M259.979 224.54c1.132-1.911 2.445-4.313 4.094-5.699.424 1.142 1.27 3.081 3.156 4.57-.81 1.575-1.527 2.605-4.175 4.034-.816-.181-2.553-1.054-3.075-2.905zM276.4 219.028c-1.056-3.4-2.453-5.751-3.863-6.756 2.772-.72 5.166-1.153 8.594-2.199 1.068 1.405 3.174 5.41 2.637 7.146.022.609-7.371 2.478-7.368 1.809z" class="Mod_2"/><path fill="#4B4F53" d="M267.752 223.024c-1.241-.882-2.781-3.415-3.001-5.131 1.662-1.954 5.101-4.838 6.151-4.886 2.089.668 3.979 4.456 4.479 6.395-.702.825-5.648 3.229-7.629 3.622zM261.384 231.368a15.104 15.104 0 003.653 2.098c-.434.389-.654.77-.627 1.103-1.164-.378-2.735-1.167-4.363-2.215.663-.399 1.097-.714 1.337-.986z" class="Color_1"/><path fill="#d5c6b5" d="M271.539 234.171c-.222.365-.2.806.1 1.281-2.076.257-4.384-.009-5.918-.442a1.877 1.877 0 01.195-1.281c2.269.545 4.46.562 5.623.442z" class="Mod_2"/><path fill="#4B4F53" d="M272.801 233.983q3.994-.648 7.28-4.099c.662.729.516 1.997.33 2.906a25.438 25.438 0 01-7.591 2.522q-.312-.901-.019-1.329z" class="Color_1"/><path fill="#d5c6b5" d="M280.672 228.913c1.169-1.253 1.934-4.872 2.574-7.575 1.224 1.773 1.573 4.448 2.127 7.954-1.051 1.037-2.426 2.045-4.045 2.94.086-1.517-.385-2.415-.656-3.319z" class="Mod_2"/><path fill="#4B4F53" d="M282.907 218.911c1.176-1.043 3.406-.594 5.578-1.658 1.887.792 2.936 3.217 3.369 4.325-.752 1.453-3.87 5.598-5.523 6.837-.804-4.592-1.634-6.469-3.424-9.504z" class="Color_1"/><path fill="#d5c6b5" d="M289.362 216.709c1.492-.749 5.304-4.903 6.665-6.69-.355 3.597-1.685 7.255-3.604 10.603-.255-1.412-1.282-2.786-3.061-3.913z" class="Mod_2"/><path fill="rgb(190, 169, 145)" d="M291.089 207.494c1.705-1.179 5.182-3.765 5.014-8.202-1.946 2.822-4.796 5.041-7.055 6.929.667.182 1.382.656 2.041 1.273z" class="Shadow_5"/><path fill="rgb(49, 52, 54)" d="M284.087 212.611c3.377-.837 5.372-2.654 6.379-4.079-.776-.895-1.682-1.591-2.47-1.724-1.742 1.152-3.69 2.162-5.711 2.849a17.817 17.817 0 011.802 2.954z" class="Shadow_1"/><path fill="rgb(190, 169, 145)" d="M261.095 226.351a3.949 3.949 0 01-1.116-1.811c1.132-1.911 2.445-4.313 4.094-5.699.259.697.676 1.692 1.39 2.701.456.642-3.686 5.451-4.368 4.809zM274.908 215.31c-.744-1.425-1.555-2.457-2.371-3.038 2.772-.72 5.166-1.153 8.594-2.199.46.605 1.112 1.692 1.663 2.872-.774 1.301-6.119 2.757-7.886 2.365z" class="Shadow_5"/><path fill="rgb(49, 52, 54)" d="M265.989 220.97c-.625-1.008-1.12-2.159-1.238-3.077 1.662-1.954 5.101-4.838 6.151-4.886 1.077.345 2.102 1.519 2.91 2.841-.318 1.674-6.484 5.538-7.823 5.122zM261.384 231.368a15.104 15.104 0 003.653 2.098c-.434.389-.654.77-.627 1.103-1.164-.378-2.735-1.167-4.363-2.215.663-.399 1.097-.714 1.337-.986z" class="Shadow_1"/><path fill="rgb(190, 169, 145)" d="M271.539 234.171c-.222.365-.2.806.1 1.281-2.076.257-4.384-.009-5.918-.442a1.877 1.877 0 01.195-1.281c2.269.545 4.46.562 5.623.442z" class="Shadow_5"/><path fill="rgb(49, 52, 54)" d="M272.801 233.983q3.994-.648 7.28-4.099c.4.441.505 1.077.485 1.712-.014.417-5.059 3.277-7.746 3.716q-.312-.901-.019-1.329z" class="Shadow_1"/><path fill="rgb(190, 169, 145)" d="M281.319 231.39c-.086-1.035-.43-1.754-.647-2.477 1.169-1.253 1.934-4.872 2.574-7.575.56.811.937 1.811 1.234 2.992.967 1.371-2.537 7.302-3.161 7.06z" class="Shadow_5"/><path fill="rgb(49, 52, 54)" d="M284.883 222.812c-.442-1.356-1.414-2.948-1.976-3.901 1.176-1.043 3.406-.594 5.578-1.658.834.35 1.505 1.02 2.031 1.754-2.885 1.744-4.218 2.53-5.633 3.805z" class="Shadow_1"/><path fill="rgb(190, 169, 145)" d="M291.464 218.559c-.511-.661-1.212-1.286-2.102-1.85 1.492-.749 5.304-4.903 6.665-6.69-.355 3.597-3.232 7.718-4.563 8.54z" class="Shadow_5"/></g><style></style></svg>